<?xml version="1.0" encoding="utf-8"?>
<!-- Generator: Adobe Illustrator 25.0.1, SVG Export Plug-In . SVG Version: 6.00 Build 0)  -->
<svg version="1.1" xmlns="http://www.w3.org/2000/svg" xmlns:xlink="http://www.w3.org/1999/xlink" x="0px" y="0px"
	 viewBox="0 500 2000 850" style="enable-background:new 0 0 2000 2000;" xml:space="preserve" class="logo--svg nav__logo--svg">
<style type="text/css">
	.st0{fill:rgb(200,200,200);}
	.st1{fill:#011627;}
	.st2{fill:#FF0022;stroke:#000000;stroke-width:2.3692;stroke-miterlimit:10;}
</style>
<g id="Warstwa_1">
	<g>
		<path class="st0" d="M1421.1,839.4c-15.2,27.2,58.7,30.1,131.6,70.9c38.8,21.7,49.3,39.6,58.7,44.9c13.5,7.6,33.2,3.9,39.7-7.8
			C1772,731.5,1900.6,685,1909.6,668.9c5.2-9.3,0.8-21.2-9.3-26.9c-17-9.5-158.6,18.1-240.6,66c10-53.2,61.1-233.2,68.4-285.7
			c2.8-21-29.1-26.9-38.7-10.8c-40,67.1-64,88.3-153.8,215.7c-17.3-54.6-45-106.3-66.4-158.8c-9.6-23.5-48.7-15.1-47.8,5.7
			c12.3,275.6-76.8,336.4-41.3,356.3c10.3,5.8,26.9,3,32.2-6.4c5.4-9.7,51-113,59.5-244c40.2,85.9,28.3,102.5,41.6,110
			c27,15.1,24.2-0.2,132.4-130.5c-46.5,193-35.7,192.2-23.4,199c33.7,18.9,33.8-20.4,155.6-54c-65.4,53.3-117.4,113.5-163.9,189.2
			C1516.4,814.8,1430.6,822.5,1421.1,839.4z"/>
		<g>
			<path class="st1" d="M1854.8,1075c-1-8.2-1.9-15.5-2.5-21.8c-0.8-8.2-4.1-15.3-9.6-20.9c-0.2-0.2-0.3-0.3-0.5-0.5
				s-0.3-0.3-0.5-0.5s-0.3-0.3-0.5-0.5s-0.3-0.3-0.5-0.5s-0.3-0.3-0.5-0.5s-0.3-0.3-0.5-0.5s-0.3-0.3-0.5-0.5s-0.3-0.3-0.5-0.5
				s-0.3-0.3-0.5-0.5s-0.3-0.3-0.5-0.5s-0.3-0.3-0.5-0.5s-0.3-0.3-0.5-0.5s-0.3-0.3-0.5-0.5s-0.3-0.3-0.5-0.5s-0.3-0.3-0.5-0.5
				s-0.3-0.3-0.5-0.5s-0.3-0.3-0.5-0.5c-0.2-0.2-0.3-0.3-0.5-0.5s-0.3-0.3-0.5-0.5s-0.3-0.3-0.5-0.5s-0.3-0.3-0.5-0.5
				s-0.3-0.3-0.5-0.5s-0.3-0.3-0.5-0.5s-0.3-0.3-0.5-0.5s-0.3-0.3-0.5-0.5s-0.3-0.3-0.5-0.5s-0.3-0.3-0.5-0.5s-0.3-0.3-0.5-0.5
				s-0.3-0.3-0.5-0.5s-0.3-0.3-0.5-0.5s-0.3-0.3-0.5-0.5s-0.3-0.3-0.5-0.5s-0.3-0.3-0.5-0.5s-0.3-0.3-0.5-0.5s-0.3-0.3-0.5-0.5
				s-0.3-0.3-0.5-0.5s-0.3-0.3-0.5-0.5s-0.3-0.3-0.5-0.5s-0.3-0.3-0.5-0.5s-0.3-0.3-0.5-0.5s-0.3-0.3-0.5-0.5s-0.3-0.3-0.5-0.5
				s-0.3-0.3-0.5-0.5s-0.3-0.3-0.5-0.5s-0.3-0.3-0.5-0.5s-0.3-0.3-0.5-0.5s-0.3-0.3-0.5-0.5s-0.3-0.3-0.5-0.5s-0.3-0.3-0.5-0.5
				s-0.3-0.3-0.5-0.5s-0.3-0.3-0.5-0.5s-0.3-0.3-0.5-0.5s-0.3-0.3-0.5-0.5s-0.3-0.3-0.5-0.5s-0.3-0.3-0.5-0.5s-0.3-0.3-0.5-0.5
				s-0.3-0.3-0.5-0.5s-0.3-0.3-0.5-0.5s-0.3-0.3-0.5-0.5s-0.3-0.3-0.5-0.5s-0.3-0.3-0.5-0.5s-0.3-0.3-0.5-0.5s-0.3-0.3-0.5-0.5
				s-0.3-0.3-0.5-0.5s-0.3-0.3-0.5-0.5s-0.3-0.3-0.5-0.5s-0.3-0.3-0.5-0.5s-0.3-0.3-0.5-0.5s-0.3-0.3-0.5-0.5s-0.3-0.3-0.5-0.5
				s-0.3-0.3-0.5-0.5s-0.3-0.3-0.5-0.5s-0.3-0.3-0.5-0.5s-0.3-0.3-0.5-0.5s-0.3-0.3-0.5-0.5s-0.3-0.3-0.5-0.5s-0.3-0.3-0.5-0.5
				c-0.4-0.5-0.9-0.9-1.4-1.4c2.2-0.5,4.2-1,6.1-1.6c15-3.8,25.8-11,31.4-20.9c3.5-6.3,4.7-13.4,3.5-20.3
				c0.8-46.3,3.5-83.4,7.8-107.5c1.9-10.6-0.8-21-7.6-29c-1.1-1.3-2.4-2.6-3.7-3.8c-0.2-0.2-0.3-0.3-0.5-0.5
				c-0.2-0.2-0.3-0.3-0.5-0.5s-0.3-0.3-0.5-0.5c-0.2-0.2-0.3-0.3-0.5-0.5s-0.3-0.3-0.5-0.5c-0.2-0.2-0.3-0.3-0.5-0.5
				s-0.3-0.3-0.5-0.5c-0.2-0.2-0.3-0.3-0.5-0.5s-0.3-0.3-0.5-0.5s-0.3-0.3-0.5-0.5c-0.2-0.2-0.3-0.3-0.5-0.5s-0.3-0.3-0.5-0.5
				c-0.2-0.2-0.3-0.3-0.5-0.5s-0.3-0.3-0.5-0.5s-0.3-0.3-0.5-0.5s-0.3-0.3-0.5-0.5s-0.3-0.3-0.5-0.5c-0.2-0.2-0.3-0.3-0.5-0.5
				s-0.3-0.3-0.5-0.5c-0.2-0.2-0.3-0.3-0.5-0.5s-0.3-0.3-0.5-0.5c-0.2-0.2-0.3-0.3-0.5-0.5s-0.3-0.3-0.5-0.5
				c-0.2-0.2-0.3-0.3-0.5-0.5s-0.3-0.3-0.5-0.5s-0.3-0.3-0.5-0.5c-0.2-0.2-0.3-0.3-0.5-0.5s-0.3-0.3-0.5-0.5
				c-0.2-0.2-0.3-0.3-0.5-0.5s-0.3-0.3-0.5-0.5s-0.3-0.3-0.5-0.5s-0.3-0.3-0.5-0.5s-0.3-0.3-0.5-0.5c-0.2-0.2-0.3-0.3-0.5-0.5
				s-0.3-0.3-0.5-0.5c-0.2-0.2-0.3-0.3-0.5-0.5s-0.3-0.3-0.5-0.5c-0.2-0.2-0.3-0.3-0.5-0.5s-0.3-0.3-0.5-0.5s-0.3-0.3-0.5-0.5
				s-0.3-0.3-0.5-0.5s-0.3-0.3-0.5-0.5c-0.2-0.2-0.3-0.3-0.5-0.5s-0.3-0.3-0.5-0.5c-0.2-0.2-0.3-0.3-0.5-0.5s-0.3-0.3-0.5-0.5
				c-0.2-0.2-0.3-0.3-0.5-0.5s-0.3-0.3-0.5-0.5s-0.3-0.3-0.5-0.5c-0.2-0.2-0.3-0.3-0.5-0.5s-0.3-0.3-0.5-0.5
				c-0.2-0.2-0.3-0.3-0.5-0.5s-0.3-0.3-0.5-0.5s-0.3-0.3-0.5-0.5s-0.3-0.3-0.5-0.5s-0.3-0.3-0.5-0.5c-0.2-0.2-0.3-0.3-0.5-0.5
				s-0.3-0.3-0.5-0.5c-0.2-0.2-0.3-0.3-0.5-0.5s-0.3-0.3-0.5-0.5c-0.2-0.2-0.3-0.3-0.5-0.5s-0.3-0.3-0.5-0.5
				c-0.2-0.2-0.3-0.3-0.5-0.5s-0.3-0.3-0.5-0.5s-0.3-0.3-0.5-0.5c-0.2-0.2-0.3-0.3-0.5-0.5s-0.3-0.3-0.5-0.5
				c-0.2-0.2-0.3-0.3-0.5-0.5s-0.3-0.3-0.5-0.5s-0.3-0.3-0.5-0.5s-0.3-0.3-0.5-0.5s-0.3-0.3-0.5-0.5c-0.2-0.2-0.3-0.3-0.5-0.5
				s-0.3-0.3-0.5-0.5c-0.2-0.2-0.3-0.3-0.5-0.5s-0.3-0.3-0.5-0.5c-0.2-0.2-0.3-0.3-0.5-0.5c-9.2-8.5-23.3-13.3-39.7-13.3
				c-21.7,0-45.1,8.6-52.6,27.7c-14.3-6.4-29.3-9.7-44.5-9.7c-26.4,0-66.5,10.3-107.8,59.2c-4.2,4.9-7.8,9.7-11.1,14.5
				c-1.3-2.2-2.8-4.2-4.4-5.9c-0.2-0.2-0.3-0.3-0.5-0.5c-0.2-0.2-0.3-0.3-0.5-0.5c-0.2-0.2-0.3-0.3-0.5-0.5
				c-0.2-0.2-0.3-0.3-0.5-0.5c-0.2-0.2-0.3-0.3-0.5-0.5c-0.2-0.2-0.3-0.3-0.5-0.5c-0.2-0.2-0.3-0.3-0.5-0.5
				c-0.2-0.2-0.3-0.3-0.5-0.5c-0.2-0.2-0.3-0.3-0.5-0.5c-0.2-0.2-0.3-0.3-0.5-0.5c-0.2-0.2-0.3-0.3-0.5-0.5
				c-0.2-0.2-0.3-0.3-0.5-0.5c-0.2-0.2-0.3-0.3-0.5-0.5c-0.2-0.2-0.3-0.3-0.5-0.5c-0.2-0.2-0.3-0.3-0.5-0.5
				c-0.2-0.2-0.3-0.3-0.5-0.5c-0.2-0.2-0.3-0.3-0.5-0.5c-0.2-0.2-0.3-0.3-0.5-0.5c-0.2-0.2-0.3-0.3-0.5-0.5
				c-0.2-0.2-0.3-0.3-0.5-0.5c-0.2-0.2-0.3-0.3-0.5-0.5c-0.2-0.2-0.3-0.3-0.5-0.5c-0.2-0.2-0.3-0.3-0.5-0.5
				c-0.2-0.2-0.3-0.3-0.5-0.5c-0.2-0.2-0.3-0.3-0.5-0.5c-0.2-0.2-0.3-0.3-0.5-0.5c-0.2-0.2-0.3-0.3-0.5-0.5
				c-0.2-0.2-0.3-0.3-0.5-0.5c-0.2-0.2-0.3-0.3-0.5-0.5c-0.2-0.2-0.3-0.3-0.5-0.5c-0.2-0.2-0.3-0.3-0.5-0.5
				c-0.2-0.2-0.3-0.3-0.5-0.5c-0.2-0.2-0.3-0.3-0.5-0.5c-0.2-0.2-0.3-0.3-0.5-0.5c-0.2-0.2-0.3-0.3-0.5-0.5
				c-0.2-0.2-0.3-0.3-0.5-0.5c-0.2-0.2-0.3-0.3-0.5-0.5c-0.2-0.2-0.3-0.3-0.5-0.5c-0.2-0.2-0.3-0.3-0.5-0.5
				c-0.2-0.2-0.3-0.3-0.5-0.5c-0.2-0.2-0.3-0.3-0.5-0.5c-0.2-0.2-0.3-0.3-0.5-0.5c-0.2-0.2-0.3-0.3-0.5-0.5
				c-0.2-0.2-0.3-0.3-0.5-0.5c-0.2-0.2-0.3-0.3-0.5-0.5c-0.2-0.2-0.3-0.3-0.5-0.5c-0.2-0.2-0.3-0.3-0.5-0.5
				c-0.2-0.2-0.3-0.3-0.5-0.5c-0.2-0.2-0.3-0.3-0.5-0.5c-0.2-0.2-0.3-0.3-0.5-0.5c-0.2-0.2-0.3-0.3-0.5-0.5
				c-0.2-0.2-0.3-0.3-0.5-0.5c-0.2-0.2-0.3-0.3-0.5-0.5c-0.2-0.2-0.3-0.3-0.5-0.5c-0.2-0.2-0.3-0.3-0.5-0.5
				c-0.2-0.2-0.3-0.3-0.5-0.5c-0.2-0.2-0.3-0.3-0.5-0.5c-0.2-0.2-0.3-0.3-0.5-0.5c-0.2-0.2-0.3-0.3-0.5-0.5
				c-0.2-0.2-0.3-0.3-0.5-0.5c-0.2-0.2-0.3-0.3-0.5-0.5c-0.2-0.2-0.3-0.3-0.5-0.5c-0.2-0.2-0.3-0.3-0.5-0.5
				c-0.2-0.2-0.3-0.3-0.5-0.5c-0.2-0.2-0.3-0.3-0.5-0.5c-0.2-0.2-0.3-0.3-0.5-0.5c-0.2-0.2-0.3-0.3-0.5-0.5
				c-0.2-0.2-0.3-0.3-0.5-0.5c-0.2-0.2-0.3-0.3-0.5-0.5c-0.2-0.2-0.3-0.3-0.5-0.5c-0.2-0.2-0.3-0.3-0.5-0.5
				c-0.2-0.2-0.3-0.3-0.5-0.5c-0.2-0.2-0.3-0.3-0.5-0.5c-0.2-0.2-0.3-0.3-0.5-0.5c-0.2-0.2-0.3-0.3-0.5-0.5
				c-0.2-0.2-0.3-0.3-0.5-0.5c-0.2-0.2-0.3-0.3-0.5-0.5c-11.1-12.1-30.5-14.1-42-14.1c-7.5,0-29.3,1.1-44.5,12.8
				c0,0-0.1-0.1-0.1-0.1c-0.2-0.2-0.3-0.3-0.5-0.5s-0.3-0.3-0.5-0.5s-0.3-0.3-0.5-0.5s-0.3-0.3-0.5-0.5s-0.3-0.3-0.5-0.5
				s-0.3-0.3-0.5-0.5s-0.3-0.3-0.5-0.5s-0.3-0.3-0.5-0.5s-0.3-0.3-0.5-0.5s-0.3-0.3-0.5-0.5s-0.3-0.3-0.5-0.5s-0.3-0.3-0.5-0.5
				s-0.3-0.3-0.5-0.5s-0.3-0.3-0.5-0.5s-0.3-0.3-0.5-0.5s-0.3-0.3-0.5-0.5s-0.3-0.3-0.5-0.5s-0.3-0.3-0.5-0.5s-0.3-0.3-0.5-0.5
				s-0.3-0.3-0.5-0.5s-0.3-0.3-0.5-0.5s-0.3-0.3-0.5-0.5s-0.3-0.3-0.5-0.5s-0.3-0.3-0.5-0.5s-0.3-0.3-0.5-0.5s-0.3-0.3-0.5-0.5
				s-0.3-0.3-0.5-0.5s-0.3-0.3-0.5-0.5s-0.3-0.3-0.5-0.5s-0.3-0.3-0.5-0.5s-0.3-0.3-0.5-0.5s-0.3-0.3-0.5-0.5s-0.3-0.3-0.5-0.5
				s-0.3-0.3-0.5-0.5s-0.3-0.3-0.5-0.5s-0.3-0.3-0.5-0.5s-0.3-0.3-0.5-0.5s-0.3-0.3-0.5-0.5s-0.3-0.3-0.5-0.5s-0.3-0.3-0.5-0.5
				s-0.3-0.3-0.5-0.5s-0.3-0.3-0.5-0.5s-0.3-0.3-0.5-0.5s-0.3-0.3-0.5-0.5s-0.3-0.3-0.5-0.5s-0.3-0.3-0.5-0.5s-0.3-0.3-0.5-0.5
				s-0.3-0.3-0.5-0.5s-0.3-0.3-0.5-0.5s-0.3-0.3-0.5-0.5s-0.3-0.3-0.5-0.5c-11.3-10.9-28.3-12.6-37.8-12.6
				c-26.6,0-56.4,12.5-59.3,40l-4.7,43.7c-0.1,0.4-0.1,0.8-0.1,1.3c-3.1-3.8-6.4-7.3-9.8-10.6c-0.2-0.2-0.3-0.3-0.5-0.5
				s-0.3-0.3-0.5-0.5c-0.2-0.2-0.3-0.3-0.5-0.5s-0.3-0.3-0.5-0.5s-0.3-0.3-0.5-0.5c-0.2-0.2-0.3-0.3-0.5-0.5
				c-0.2-0.2-0.3-0.3-0.5-0.5c-0.2-0.2-0.3-0.3-0.5-0.5s-0.3-0.3-0.5-0.5c-0.2-0.2-0.3-0.3-0.5-0.5s-0.3-0.3-0.5-0.5
				s-0.3-0.3-0.5-0.5c-0.2-0.2-0.3-0.3-0.5-0.5c-0.2-0.2-0.3-0.3-0.5-0.5c-0.2-0.2-0.3-0.3-0.5-0.5s-0.3-0.3-0.5-0.5
				c-0.2-0.2-0.3-0.3-0.5-0.5s-0.3-0.3-0.5-0.5c-0.2-0.2-0.3-0.3-0.5-0.5s-0.3-0.3-0.5-0.5c-0.2-0.2-0.3-0.3-0.5-0.5
				c-0.2-0.2-0.3-0.3-0.5-0.5s-0.3-0.3-0.5-0.5c-0.2-0.2-0.3-0.3-0.5-0.5s-0.3-0.3-0.5-0.5c-0.2-0.2-0.3-0.3-0.5-0.5
				s-0.3-0.3-0.5-0.5s-0.3-0.3-0.5-0.5c-0.2-0.2-0.3-0.3-0.5-0.5c-0.2-0.2-0.3-0.3-0.5-0.5c-0.2-0.2-0.3-0.3-0.5-0.5
				s-0.3-0.3-0.5-0.5c-0.2-0.2-0.3-0.3-0.5-0.5s-0.3-0.3-0.5-0.5c-0.2-0.2-0.3-0.3-0.5-0.5s-0.3-0.3-0.5-0.5
				c-0.2-0.2-0.3-0.3-0.5-0.5c-0.2-0.2-0.3-0.3-0.5-0.5s-0.3-0.3-0.5-0.5c-0.2-0.2-0.3-0.3-0.5-0.5s-0.3-0.3-0.5-0.5
				c-0.2-0.2-0.3-0.3-0.5-0.5s-0.3-0.3-0.5-0.5s-0.3-0.3-0.5-0.5c-0.2-0.2-0.3-0.3-0.5-0.5c-0.2-0.2-0.3-0.3-0.5-0.5
				c-0.2-0.2-0.3-0.3-0.5-0.5s-0.3-0.3-0.5-0.5c-0.2-0.2-0.3-0.3-0.5-0.5s-0.3-0.3-0.5-0.5s-0.3-0.3-0.5-0.5
				c-0.2-0.2-0.3-0.3-0.5-0.5c-0.2-0.2-0.3-0.3-0.5-0.5c-0.2-0.2-0.3-0.3-0.5-0.5s-0.3-0.3-0.5-0.5c-0.2-0.2-0.3-0.3-0.5-0.5
				s-0.3-0.3-0.5-0.5c-0.2-0.2-0.3-0.3-0.5-0.5s-0.3-0.3-0.5-0.5c-0.2-0.2-0.3-0.3-0.5-0.5c-0.2-0.2-0.3-0.3-0.5-0.5
				s-0.3-0.3-0.5-0.5c-0.2-0.2-0.3-0.3-0.5-0.5s-0.3-0.3-0.5-0.5c-0.2-0.2-0.3-0.3-0.5-0.5s-0.3-0.3-0.5-0.5s-0.3-0.3-0.5-0.5
				c-0.2-0.2-0.3-0.3-0.5-0.5c-0.2-0.2-0.3-0.3-0.5-0.5c-0.2-0.2-0.3-0.3-0.5-0.5s-0.3-0.3-0.5-0.5c-0.2-0.2-0.3-0.3-0.5-0.5
				s-0.3-0.3-0.5-0.5c-0.2-0.2-0.3-0.3-0.5-0.5s-0.3-0.3-0.5-0.5c-0.2-0.2-0.3-0.3-0.5-0.5c-0.2-0.2-0.3-0.3-0.5-0.5
				c-20.7-20.2-46.6-30.7-76.4-30.7c-39.8,0-73.8,16.3-98.8,47.3c-17.3,8.8-31.1,21.8-42.2,37c0.3-16.2,0.7-32.4,1.3-48.7
				c0.3-9.1-3-17.7-9.3-24.2c-0.1-0.1-0.2-0.2-0.3-0.3c-0.1-0.1-0.1-0.2-0.2-0.2c-0.1-0.1-0.2-0.2-0.3-0.3c-0.1-0.1-0.1-0.2-0.2-0.2
				c-0.1-0.1-0.2-0.2-0.3-0.3c-0.1-0.1-0.1-0.2-0.2-0.2c-0.1-0.1-0.2-0.2-0.3-0.3c-0.1-0.1-0.1-0.2-0.2-0.2
				c-0.1-0.1-0.2-0.2-0.3-0.3c-0.1-0.1-0.1-0.2-0.2-0.2c-0.1-0.1-0.2-0.2-0.3-0.3c-0.1-0.1-0.1-0.2-0.2-0.2
				c-0.1-0.1-0.2-0.2-0.3-0.3c-0.1-0.1-0.1-0.2-0.2-0.2c-0.1-0.1-0.2-0.2-0.3-0.3c-0.1-0.1-0.1-0.2-0.2-0.2
				c-0.1-0.1-0.2-0.2-0.3-0.3c-0.1-0.1-0.1-0.2-0.2-0.2c-0.1-0.1-0.2-0.2-0.3-0.3c-0.1-0.1-0.1-0.2-0.2-0.2
				c-0.1-0.1-0.2-0.2-0.3-0.3c-0.1-0.1-0.1-0.2-0.2-0.2c-0.1-0.1-0.2-0.2-0.3-0.3c-0.1-0.1-0.1-0.2-0.2-0.2
				c-0.1-0.1-0.2-0.2-0.3-0.3c-0.1-0.1-0.1-0.2-0.2-0.2c-0.1-0.1-0.2-0.2-0.3-0.3c-0.1-0.1-0.1-0.2-0.2-0.2
				c-0.1-0.1-0.2-0.2-0.3-0.3c-0.1-0.1-0.1-0.2-0.2-0.2c-0.1-0.1-0.2-0.2-0.3-0.3c-0.1-0.1-0.1-0.2-0.2-0.2
				c-0.1-0.1-0.2-0.2-0.3-0.3c-0.1-0.1-0.1-0.2-0.2-0.2c-0.1-0.1-0.2-0.2-0.3-0.3c-0.1-0.1-0.1-0.2-0.2-0.2
				c-0.1-0.1-0.2-0.2-0.3-0.3c-0.1-0.1-0.1-0.2-0.2-0.2c-0.1-0.1-0.2-0.2-0.3-0.3c-0.1-0.1-0.1-0.2-0.2-0.2
				c-0.1-0.1-0.2-0.2-0.3-0.3c-0.1-0.1-0.1-0.2-0.2-0.2c-0.1-0.1-0.2-0.2-0.3-0.3c-0.1-0.1-0.1-0.2-0.2-0.2
				c-0.1-0.1-0.2-0.2-0.3-0.3c-0.1-0.1-0.1-0.2-0.2-0.2c-0.1-0.1-0.2-0.2-0.3-0.3c-0.1-0.1-0.1-0.2-0.2-0.2
				c-0.1-0.1-0.2-0.2-0.3-0.3c-0.1-0.1-0.1-0.2-0.2-0.2c-0.1-0.1-0.2-0.2-0.3-0.3c-0.1-0.1-0.1-0.2-0.2-0.2
				c-0.1-0.1-0.2-0.2-0.3-0.3c-0.1-0.1-0.1-0.2-0.2-0.2c-0.1-0.1-0.2-0.2-0.3-0.3c-0.1-0.1-0.1-0.2-0.2-0.2
				c-0.1-0.1-0.2-0.2-0.3-0.3c-0.1-0.1-0.1-0.2-0.2-0.2c-0.1-0.1-0.2-0.2-0.3-0.3c-0.1-0.1-0.1-0.2-0.2-0.2
				c-0.1-0.1-0.2-0.2-0.3-0.3c-0.1-0.1-0.1-0.2-0.2-0.2c-0.1-0.1-0.2-0.2-0.3-0.3c-0.1-0.1-0.1-0.2-0.2-0.2
				c-0.1-0.1-0.2-0.2-0.3-0.3c-0.1-0.1-0.1-0.2-0.2-0.2c-0.1-0.1-0.2-0.2-0.3-0.3c-0.1-0.1-0.1-0.2-0.2-0.2
				c-0.1-0.1-0.2-0.2-0.3-0.3c-0.1-0.1-0.1-0.2-0.2-0.2c-0.1-0.1-0.2-0.2-0.3-0.3c-0.1-0.1-0.1-0.2-0.2-0.2
				c-0.1-0.1-0.2-0.2-0.3-0.3c-0.1-0.1-0.1-0.2-0.2-0.2c-0.1-0.1-0.2-0.2-0.3-0.3c-0.1-0.1-0.1-0.2-0.2-0.2
				c-0.1-0.1-0.2-0.2-0.3-0.3c-0.1-0.1-0.1-0.2-0.2-0.2c-0.1-0.1-0.2-0.2-0.3-0.3c-0.1-0.1-0.1-0.2-0.2-0.2
				c-0.1-0.1-0.2-0.2-0.3-0.3c-0.1-0.1-0.1-0.2-0.2-0.2c-0.1-0.1-0.2-0.2-0.3-0.3c-0.1-0.1-0.1-0.2-0.2-0.2
				c-0.1-0.1-0.2-0.2-0.3-0.3c-0.1-0.1-0.1-0.2-0.2-0.2c-0.1-0.1-0.2-0.2-0.3-0.3c-0.1-0.1-0.1-0.2-0.2-0.2
				c-0.1-0.1-0.2-0.2-0.3-0.3c-0.1-0.1-0.1-0.2-0.2-0.2c-0.1-0.1-0.2-0.2-0.3-0.3c-0.1-0.1-0.1-0.2-0.2-0.2
				c-0.1-0.1-0.2-0.2-0.3-0.3c-0.1-0.1-0.1-0.2-0.2-0.2c-0.1-0.1-0.2-0.2-0.3-0.3c-0.1-0.1-0.1-0.2-0.2-0.2
				c-0.1-0.1-0.2-0.2-0.3-0.3c-0.1-0.1-0.1-0.2-0.2-0.2c-0.1-0.1-0.2-0.2-0.3-0.3c-0.1-0.1-0.1-0.2-0.2-0.2
				c-0.1-0.1-0.2-0.2-0.3-0.3c-0.1-0.1-0.1-0.2-0.2-0.2c-0.1-0.1-0.2-0.2-0.3-0.3c-0.1-0.1-0.1-0.2-0.2-0.2
				c-0.1-0.1-0.2-0.2-0.3-0.3c-0.1-0.1-0.1-0.2-0.2-0.2c-0.1-0.1-0.2-0.2-0.3-0.3c-0.1-0.1-0.1-0.2-0.2-0.2
				c-0.1-0.1-0.2-0.2-0.3-0.3c-0.1-0.1-0.1-0.2-0.2-0.2c-0.1-0.1-0.2-0.2-0.3-0.3c-0.1-0.1-0.1-0.2-0.2-0.2
				c-0.1-0.1-0.2-0.2-0.3-0.3c-0.1-0.1-0.1-0.2-0.2-0.2c-0.1-0.1-0.2-0.2-0.3-0.3c-0.1-0.1-0.1-0.2-0.2-0.2
				c-0.1-0.1-0.2-0.2-0.3-0.3c-0.1-0.1-0.1-0.2-0.2-0.2c-0.1-0.1-0.2-0.2-0.3-0.3c-0.1-0.1-0.1-0.2-0.2-0.2
				c-0.1-0.1-0.2-0.2-0.3-0.3c-0.1-0.1-0.1-0.2-0.2-0.2c-0.1-0.1-0.2-0.2-0.3-0.3c-0.1-0.1-0.1-0.2-0.2-0.2
				c-0.1-0.1-0.2-0.2-0.3-0.3c-0.1-0.1-0.1-0.2-0.2-0.2c-0.1-0.1-0.2-0.2-0.3-0.3c-0.1-0.1-0.1-0.2-0.2-0.2
				c-0.1-0.1-0.2-0.2-0.3-0.3c-0.1-0.1-0.1-0.2-0.2-0.2c-0.1-0.1-0.2-0.2-0.3-0.3c-0.1-0.1-0.1-0.2-0.2-0.2
				c-0.1-0.1-0.2-0.2-0.3-0.3c-0.1-0.1-0.1-0.2-0.2-0.2c-0.1-0.1-0.2-0.2-0.3-0.3c-0.1-0.1-0.1-0.2-0.2-0.2
				c-0.1-0.1-0.2-0.2-0.3-0.3c-0.1-0.1-0.1-0.2-0.2-0.2c-0.1-0.1-0.2-0.2-0.3-0.3c-0.1-0.1-0.1-0.2-0.2-0.2
				c-0.1-0.1-0.2-0.2-0.3-0.3c-0.1-0.1-0.1-0.2-0.2-0.2c-0.1-0.1-0.2-0.2-0.3-0.3c-0.1-0.1-0.1-0.2-0.2-0.2
				c-0.1-0.1-0.2-0.2-0.3-0.3c-0.1-0.1-0.1-0.2-0.2-0.2c-0.1-0.1-0.2-0.2-0.3-0.3c-0.1-0.1-0.1-0.2-0.2-0.2
				c-0.1-0.1-0.2-0.2-0.3-0.3c-0.1-0.1-0.1-0.2-0.2-0.2c-0.1-0.1-0.2-0.2-0.3-0.3c-0.1-0.1-0.1-0.2-0.2-0.2
				c-0.1-0.1-0.2-0.2-0.3-0.3c-0.1-0.1-0.1-0.2-0.2-0.2c-0.1-0.1-0.2-0.2-0.3-0.3c-0.1-0.1-0.1-0.2-0.2-0.2
				c-8.3-8.6-21.7-13.4-37.7-13.4c-27.5,0-56.9,13.8-59.9,40.1c-4.7,41.4-11.9,84.4-21.8,130.8c-6.9-33.9-12.5-66.2-16.8-97.7
				c-1.1-7.9-4.6-14.8-10.1-20.2c-0.2-0.2-0.3-0.3-0.5-0.5c-0.2-0.2-0.3-0.3-0.5-0.5c-0.2-0.2-0.3-0.3-0.5-0.5
				c-0.2-0.2-0.3-0.3-0.5-0.5c-0.2-0.2-0.3-0.3-0.5-0.5c-0.2-0.2-0.3-0.3-0.5-0.5c-0.2-0.2-0.3-0.3-0.5-0.5
				c-0.2-0.2-0.3-0.3-0.5-0.5c-0.2-0.2-0.3-0.3-0.5-0.5c-0.2-0.2-0.3-0.3-0.5-0.5c-0.2-0.2-0.3-0.3-0.5-0.5
				c-0.2-0.2-0.3-0.3-0.5-0.5c-0.2-0.2-0.3-0.3-0.5-0.5c-0.2-0.2-0.3-0.3-0.5-0.5c-0.2-0.2-0.3-0.3-0.5-0.5
				c-0.2-0.2-0.3-0.3-0.5-0.5c-0.2-0.2-0.3-0.3-0.5-0.5c-0.2-0.2-0.3-0.3-0.5-0.5c-0.2-0.2-0.3-0.3-0.5-0.5
				c-0.2-0.2-0.3-0.3-0.5-0.5c-0.2-0.2-0.3-0.3-0.5-0.5c-0.2-0.2-0.3-0.3-0.5-0.5c-0.2-0.2-0.3-0.3-0.5-0.5
				c-0.2-0.2-0.3-0.3-0.5-0.5c-0.2-0.2-0.3-0.3-0.5-0.5c-0.2-0.2-0.3-0.3-0.5-0.5c-0.2-0.2-0.3-0.3-0.5-0.5
				c-0.2-0.2-0.3-0.3-0.5-0.5c-0.2-0.2-0.3-0.3-0.5-0.5c-0.2-0.2-0.3-0.3-0.5-0.5c-0.2-0.2-0.3-0.3-0.5-0.5
				c-0.2-0.2-0.3-0.3-0.5-0.5c-0.2-0.2-0.3-0.3-0.5-0.5c-0.2-0.2-0.3-0.3-0.5-0.5c-0.2-0.2-0.3-0.3-0.5-0.5
				c-0.2-0.2-0.3-0.3-0.5-0.5c-0.2-0.2-0.3-0.3-0.5-0.5c-0.2-0.2-0.3-0.3-0.5-0.5c-0.2-0.2-0.3-0.3-0.5-0.5
				c-0.2-0.2-0.3-0.3-0.5-0.5c-0.2-0.2-0.3-0.3-0.5-0.5c-0.2-0.2-0.3-0.3-0.5-0.5c-0.2-0.2-0.3-0.3-0.5-0.5
				c-0.2-0.2-0.3-0.3-0.5-0.5c-0.2-0.2-0.3-0.3-0.5-0.5c-0.2-0.2-0.3-0.3-0.5-0.5c-0.2-0.2-0.3-0.3-0.5-0.5
				c-0.2-0.2-0.3-0.3-0.5-0.5c-0.2-0.2-0.3-0.3-0.5-0.5c-0.2-0.2-0.3-0.3-0.5-0.5c-0.2-0.2-0.3-0.3-0.5-0.5
				c-0.2-0.2-0.3-0.3-0.5-0.5c-0.2-0.2-0.3-0.3-0.5-0.5c-0.2-0.2-0.3-0.3-0.5-0.5c-0.2-0.2-0.3-0.3-0.5-0.5
				c-0.2-0.2-0.3-0.3-0.5-0.5c-0.2-0.2-0.3-0.3-0.5-0.5c-0.2-0.2-0.3-0.3-0.5-0.5c-0.2-0.2-0.3-0.3-0.5-0.5
				c-0.2-0.2-0.3-0.3-0.5-0.5c-0.2-0.2-0.3-0.3-0.5-0.5c-0.2-0.2-0.3-0.3-0.5-0.5c-0.2-0.2-0.3-0.3-0.5-0.5
				c-0.2-0.2-0.3-0.3-0.5-0.5c-0.2-0.2-0.3-0.3-0.5-0.5c-0.2-0.2-0.3-0.3-0.5-0.5c-0.2-0.2-0.3-0.3-0.5-0.5
				c-0.2-0.2-0.3-0.3-0.5-0.5c-0.2-0.2-0.3-0.3-0.5-0.5c-0.2-0.2-0.3-0.3-0.5-0.5c-0.2-0.2-0.3-0.3-0.5-0.5
				c-0.2-0.2-0.3-0.3-0.5-0.5c-0.2-0.2-0.3-0.3-0.5-0.5c-0.2-0.2-0.3-0.3-0.5-0.5c-0.2-0.2-0.3-0.3-0.5-0.5
				c-0.2-0.2-0.3-0.3-0.5-0.5c-0.2-0.2-0.3-0.3-0.5-0.5c-8.8-9.1-23-14.4-40.3-14.4c-19.3,0-37,6.5-47.1,17.3
				c-7,7.5-10.5,17-9.8,26.8c0.6,9.4,1.2,18.9,1.7,28.5c0,0-0.1-0.1-0.1-0.1c-0.2-0.2-0.3-0.3-0.5-0.5s-0.3-0.3-0.5-0.5
				s-0.3-0.3-0.5-0.5s-0.3-0.3-0.5-0.5s-0.3-0.3-0.5-0.5s-0.3-0.3-0.5-0.5s-0.3-0.3-0.5-0.5s-0.3-0.3-0.5-0.5s-0.3-0.3-0.5-0.5
				s-0.3-0.3-0.5-0.5s-0.3-0.3-0.5-0.5s-0.3-0.3-0.5-0.5s-0.3-0.3-0.5-0.5s-0.3-0.3-0.5-0.5s-0.3-0.3-0.5-0.5s-0.3-0.3-0.5-0.5
				s-0.3-0.3-0.5-0.5c-0.2-0.2-0.3-0.3-0.5-0.5s-0.3-0.3-0.5-0.5s-0.3-0.3-0.5-0.5s-0.3-0.3-0.5-0.5s-0.3-0.3-0.5-0.5
				s-0.3-0.3-0.5-0.5s-0.3-0.3-0.5-0.5s-0.3-0.3-0.5-0.5s-0.3-0.3-0.5-0.5s-0.3-0.3-0.5-0.5s-0.3-0.3-0.5-0.5s-0.3-0.3-0.5-0.5
				s-0.3-0.3-0.5-0.5s-0.3-0.3-0.5-0.5s-0.3-0.3-0.5-0.5s-0.3-0.3-0.5-0.5c-0.2-0.2-0.3-0.3-0.5-0.5s-0.3-0.3-0.5-0.5
				s-0.3-0.3-0.5-0.5s-0.3-0.3-0.5-0.5s-0.3-0.3-0.5-0.5s-0.3-0.3-0.5-0.5s-0.3-0.3-0.5-0.5s-0.3-0.3-0.5-0.5s-0.3-0.3-0.5-0.5
				s-0.3-0.3-0.5-0.5s-0.3-0.3-0.5-0.5s-0.3-0.3-0.5-0.5s-0.3-0.3-0.5-0.5s-0.3-0.3-0.5-0.5s-0.3-0.3-0.5-0.5s-0.3-0.3-0.5-0.5
				s-0.3-0.3-0.5-0.5s-0.3-0.3-0.5-0.5s-0.3-0.3-0.5-0.5s-0.3-0.3-0.5-0.5s-0.3-0.3-0.5-0.5s-0.3-0.3-0.5-0.5
				c-8.7-9.2-23.2-14.3-40.8-14.3c-21.2,0-46.7,7.6-54.9,29c-1,2.6-1.9,5.2-2.8,7.8c-27.6-22.2-57.1-33.7-86.8-33.7
				c-13.3,0-26.7,2.3-39.7,7c-8.1,2.9-15.5,6.6-22.2,10.9c0,0-0.1-0.1-0.1-0.1c-0.1-0.1-0.1-0.2-0.2-0.2c-0.1-0.1-0.2-0.2-0.3-0.3
				c-0.1-0.1-0.1-0.2-0.2-0.2c-0.1-0.1-0.2-0.2-0.3-0.3c-0.1-0.1-0.1-0.2-0.2-0.2c-0.1-0.1-0.2-0.2-0.3-0.3
				c-0.1-0.1-0.1-0.2-0.2-0.2c-0.1-0.1-0.2-0.2-0.3-0.3c-0.1-0.1-0.1-0.2-0.2-0.2c-0.1-0.1-0.2-0.2-0.3-0.3
				c-0.1-0.1-0.1-0.2-0.2-0.2c-0.1-0.1-0.2-0.2-0.3-0.3c-0.1-0.1-0.1-0.2-0.2-0.2c-0.1-0.1-0.2-0.2-0.3-0.3
				c-0.1-0.1-0.1-0.2-0.2-0.2c-0.1-0.1-0.2-0.2-0.3-0.3c-0.1-0.1-0.1-0.2-0.2-0.2c-0.1-0.1-0.2-0.2-0.3-0.3
				c-0.1-0.1-0.1-0.2-0.2-0.2c-0.1-0.1-0.2-0.2-0.3-0.3c-0.1-0.1-0.1-0.2-0.2-0.2c-0.1-0.1-0.2-0.2-0.3-0.3
				c-0.1-0.1-0.1-0.2-0.2-0.2c-0.1-0.1-0.2-0.2-0.3-0.3c-0.1-0.1-0.1-0.2-0.2-0.2c-0.1-0.1-0.2-0.2-0.3-0.3
				c-0.1-0.1-0.1-0.2-0.2-0.2c-0.1-0.1-0.2-0.2-0.3-0.3c-0.1-0.1-0.1-0.2-0.2-0.2c-0.1-0.1-0.2-0.2-0.3-0.3
				c-0.1-0.1-0.1-0.2-0.2-0.2c-0.1-0.1-0.2-0.2-0.3-0.3c-0.1-0.1-0.1-0.2-0.2-0.2c-0.1-0.1-0.2-0.2-0.3-0.3
				c-0.1-0.1-0.1-0.2-0.2-0.2c-0.1-0.1-0.2-0.2-0.3-0.3c-0.1-0.1-0.1-0.2-0.2-0.2c-0.1-0.1-0.2-0.2-0.3-0.3
				c-0.1-0.1-0.1-0.2-0.2-0.2c-0.1-0.1-0.2-0.2-0.3-0.3c-0.1-0.1-0.1-0.2-0.2-0.2c-0.1-0.1-0.2-0.2-0.3-0.3
				c-0.1-0.1-0.1-0.2-0.2-0.2c-0.1-0.1-0.2-0.2-0.3-0.3c-0.1-0.1-0.1-0.2-0.2-0.2c-0.1-0.1-0.2-0.2-0.3-0.3
				c-0.1-0.1-0.1-0.2-0.2-0.2c-0.1-0.1-0.2-0.2-0.3-0.3c-0.1-0.1-0.1-0.2-0.2-0.2c-0.1-0.1-0.2-0.2-0.3-0.3
				c-0.1-0.1-0.1-0.2-0.2-0.2c-0.1-0.1-0.2-0.2-0.3-0.3c-0.1-0.1-0.1-0.2-0.2-0.2c-0.1-0.1-0.2-0.2-0.3-0.3
				c-0.1-0.1-0.1-0.2-0.2-0.2c-0.1-0.1-0.2-0.2-0.3-0.3c-0.1-0.1-0.1-0.2-0.2-0.2c-0.1-0.1-0.2-0.2-0.3-0.3
				c-0.1-0.1-0.1-0.2-0.2-0.2c-0.1-0.1-0.2-0.2-0.3-0.3c-0.1-0.1-0.1-0.2-0.2-0.2c-0.1-0.1-0.2-0.2-0.3-0.3
				c-0.1-0.1-0.1-0.2-0.2-0.2c-0.1-0.1-0.2-0.2-0.3-0.3c-0.1-0.1-0.1-0.2-0.2-0.2c-0.1-0.1-0.2-0.2-0.3-0.3
				c-0.1-0.1-0.1-0.2-0.2-0.2c-0.1-0.1-0.2-0.2-0.3-0.3c-0.1-0.1-0.1-0.2-0.2-0.2c-0.1-0.1-0.2-0.2-0.3-0.3
				c-0.1-0.1-0.1-0.2-0.2-0.2c-0.1-0.1-0.2-0.2-0.3-0.3c-0.1-0.1-0.1-0.2-0.2-0.2c-0.1-0.1-0.2-0.2-0.3-0.3
				c-0.1-0.1-0.1-0.2-0.2-0.2c-0.1-0.1-0.2-0.2-0.3-0.3c-0.1-0.1-0.1-0.2-0.2-0.2c-0.1-0.1-0.2-0.2-0.3-0.3
				c-0.1-0.1-0.1-0.2-0.2-0.2c-0.1-0.1-0.2-0.2-0.3-0.3c-0.1-0.1-0.1-0.2-0.2-0.2c-0.1-0.1-0.2-0.2-0.3-0.3
				c-0.1-0.1-0.1-0.2-0.2-0.2c-0.1-0.1-0.2-0.2-0.3-0.3c-0.1-0.1-0.1-0.2-0.2-0.2c-0.1-0.1-0.2-0.2-0.3-0.3
				c-0.1-0.1-0.1-0.2-0.2-0.2c-0.1-0.1-0.2-0.2-0.3-0.3c-0.1-0.1-0.1-0.2-0.2-0.2c-0.1-0.1-0.2-0.2-0.3-0.3
				c-0.1-0.1-0.1-0.2-0.2-0.2c-0.1-0.1-0.2-0.2-0.3-0.3c-0.1-0.1-0.1-0.2-0.2-0.2c-0.1-0.1-0.2-0.2-0.3-0.3
				c-0.1-0.1-0.1-0.2-0.2-0.2c-0.1-0.1-0.2-0.2-0.3-0.3c-0.1-0.1-0.1-0.2-0.2-0.2c-0.1-0.1-0.2-0.2-0.3-0.3
				c-0.1-0.1-0.1-0.2-0.2-0.2c-0.1-0.1-0.2-0.2-0.3-0.3c-0.1-0.1-0.1-0.2-0.2-0.2c-0.1-0.1-0.2-0.2-0.3-0.3
				c-0.1-0.1-0.1-0.2-0.2-0.2c-0.1-0.1-0.2-0.2-0.3-0.3c-0.1-0.1-0.1-0.2-0.2-0.2c-0.1-0.1-0.2-0.2-0.3-0.3
				c-0.1-0.1-0.1-0.2-0.2-0.2c-0.1-0.1-0.2-0.2-0.3-0.3c-0.1-0.1-0.1-0.2-0.2-0.2c-0.1-0.1-0.2-0.2-0.3-0.3
				c-0.1-0.1-0.1-0.2-0.2-0.2c-0.1-0.1-0.2-0.2-0.3-0.3c-0.1-0.1-0.1-0.2-0.2-0.2c-0.1-0.1-0.2-0.2-0.3-0.3
				c-0.1-0.1-0.1-0.2-0.2-0.2c-0.1-0.1-0.2-0.2-0.3-0.3c-0.1-0.1-0.1-0.2-0.2-0.2c-0.1-0.1-0.2-0.2-0.3-0.3
				c-0.1-0.1-0.1-0.2-0.2-0.2c-0.1-0.1-0.2-0.2-0.3-0.3c-0.1-0.1-0.1-0.2-0.2-0.2c-0.1-0.1-0.2-0.2-0.3-0.3
				c-0.1-0.1-0.1-0.2-0.2-0.2c-0.1-0.1-0.2-0.2-0.3-0.3c-0.1-0.1-0.1-0.2-0.2-0.2c-0.1-0.1-0.2-0.2-0.3-0.3
				c-0.1-0.1-0.1-0.2-0.2-0.2c-0.1-0.1-0.2-0.2-0.3-0.3c-0.1-0.1-0.1-0.2-0.2-0.2c-0.1-0.1-0.2-0.2-0.3-0.3
				c-0.1-0.1-0.1-0.2-0.2-0.2c-0.1-0.1-0.2-0.2-0.3-0.3c-0.1-0.1-0.1-0.2-0.2-0.2c-0.1-0.1-0.2-0.2-0.3-0.3
				c-0.1-0.1-0.1-0.2-0.2-0.2c-0.1-0.1-0.2-0.2-0.3-0.3c-0.1-0.1-0.1-0.2-0.2-0.2c-0.1-0.1-0.2-0.2-0.3-0.3
				c-0.1-0.1-0.1-0.2-0.2-0.2c-0.1-0.1-0.2-0.2-0.3-0.3c-0.1-0.1-0.1-0.2-0.2-0.2c-0.1-0.1-0.2-0.2-0.3-0.3
				c-0.1-0.1-0.1-0.2-0.2-0.2c-0.1-0.1-0.2-0.2-0.3-0.3c-0.1-0.1-0.1-0.2-0.2-0.2c-0.1-0.1-0.2-0.2-0.3-0.3
				c-0.1-0.1-0.1-0.2-0.2-0.2c-0.1-0.1-0.2-0.2-0.3-0.3c-0.1-0.1-0.1-0.2-0.2-0.2c-0.1-0.1-0.2-0.2-0.3-0.3
				c-0.1-0.1-0.1-0.2-0.2-0.2c-8.3-8.6-21.7-13.4-37.7-13.4c-27.5,0-56.9,13.8-59.9,40.1c-4.7,41.4-11.9,84.4-21.8,130.8
				c-6.9-33.9-12.5-66.2-16.8-97.7c-1.1-7.9-4.6-14.8-10.1-20.2c-0.2-0.2-0.3-0.3-0.5-0.5c-0.2-0.2-0.3-0.3-0.5-0.5
				c-0.2-0.2-0.3-0.3-0.5-0.5c-0.2-0.2-0.3-0.3-0.5-0.5c-0.2-0.2-0.3-0.3-0.5-0.5c-0.2-0.2-0.3-0.3-0.5-0.5
				c-0.2-0.2-0.3-0.3-0.5-0.5c-0.2-0.2-0.3-0.3-0.5-0.5c-0.2-0.2-0.3-0.3-0.5-0.5c-0.2-0.2-0.3-0.3-0.5-0.5
				c-0.2-0.2-0.3-0.3-0.5-0.5c-0.2-0.2-0.3-0.3-0.5-0.5c-0.2-0.2-0.3-0.3-0.5-0.5c-0.2-0.2-0.3-0.3-0.5-0.5
				c-0.2-0.2-0.3-0.3-0.5-0.5c-0.2-0.2-0.3-0.3-0.5-0.5c-0.2-0.2-0.3-0.3-0.5-0.5c-0.2-0.2-0.3-0.3-0.5-0.5
				c-0.2-0.2-0.3-0.3-0.5-0.5c-0.2-0.2-0.3-0.3-0.5-0.5c-0.2-0.2-0.3-0.3-0.5-0.5c-0.2-0.2-0.3-0.3-0.5-0.5
				c-0.2-0.2-0.3-0.3-0.5-0.5c-0.2-0.2-0.3-0.3-0.5-0.5c-0.2-0.2-0.3-0.3-0.5-0.5c-0.2-0.2-0.3-0.3-0.5-0.5
				c-0.2-0.2-0.3-0.3-0.5-0.5c-0.2-0.2-0.3-0.3-0.5-0.5c-0.2-0.2-0.3-0.3-0.5-0.5c-0.2-0.2-0.3-0.3-0.5-0.5
				c-0.2-0.2-0.3-0.3-0.5-0.5c-0.2-0.2-0.3-0.3-0.5-0.5c-0.2-0.2-0.3-0.3-0.5-0.5c-0.2-0.2-0.3-0.3-0.5-0.5
				c-0.2-0.2-0.3-0.3-0.5-0.5c-0.2-0.2-0.3-0.3-0.5-0.5c-0.2-0.2-0.3-0.3-0.5-0.5c-0.2-0.2-0.3-0.3-0.5-0.5
				c-0.2-0.2-0.3-0.3-0.5-0.5c-0.2-0.2-0.3-0.3-0.5-0.5c-0.2-0.2-0.3-0.3-0.5-0.5c-0.2-0.2-0.3-0.3-0.5-0.5
				c-0.2-0.2-0.3-0.3-0.5-0.5c-0.2-0.2-0.3-0.3-0.5-0.5c-0.2-0.2-0.3-0.3-0.5-0.5c-0.2-0.2-0.3-0.3-0.5-0.5
				c-0.2-0.2-0.3-0.3-0.5-0.5c-0.2-0.2-0.3-0.3-0.5-0.5c-0.2-0.2-0.3-0.3-0.5-0.5c-0.2-0.2-0.3-0.3-0.5-0.5
				c-0.2-0.2-0.3-0.3-0.5-0.5c-0.2-0.2-0.3-0.3-0.5-0.5c-0.2-0.2-0.3-0.3-0.5-0.5c-0.2-0.2-0.3-0.3-0.5-0.5
				c-0.2-0.2-0.3-0.3-0.5-0.5c-0.2-0.2-0.3-0.3-0.5-0.5c-0.2-0.2-0.3-0.3-0.5-0.5c-0.2-0.2-0.3-0.3-0.5-0.5
				c-0.2-0.2-0.3-0.3-0.5-0.5c-0.2-0.2-0.3-0.3-0.5-0.5c-0.2-0.2-0.3-0.3-0.5-0.5c-0.2-0.2-0.3-0.3-0.5-0.5
				c-0.2-0.2-0.3-0.3-0.5-0.5c-0.2-0.2-0.3-0.3-0.5-0.5c-0.2-0.2-0.3-0.3-0.5-0.5c-0.2-0.2-0.3-0.3-0.5-0.5
				c-0.2-0.2-0.3-0.3-0.5-0.5c-0.2-0.2-0.3-0.3-0.5-0.5c-0.2-0.2-0.3-0.3-0.5-0.5c-0.2-0.2-0.3-0.3-0.5-0.5
				c-0.2-0.2-0.3-0.3-0.5-0.5c-0.2-0.2-0.3-0.3-0.5-0.5c-0.2-0.2-0.3-0.3-0.5-0.5c-0.2-0.2-0.3-0.3-0.5-0.5
				c-0.2-0.2-0.3-0.3-0.5-0.5c-0.2-0.2-0.3-0.3-0.5-0.5c-0.2-0.2-0.3-0.3-0.5-0.5c-8.8-9.1-23-14.4-40.3-14.4
				c-19.4,0-37,6.5-47.1,17.3c-7,7.5-10.5,17-9.8,26.8c10.2,150.7,6.6,318-11.1,511.5c-0.8,9,2.1,17.7,8.2,24.4
				c0.7,0.8,1.4,1.5,2.2,2.2c0.2,0.2,0.3,0.3,0.5,0.5s0.3,0.3,0.5,0.5s0.3,0.3,0.5,0.5s0.3,0.3,0.5,0.5c0.2,0.2,0.3,0.3,0.5,0.5
				s0.3,0.3,0.5,0.5s0.3,0.3,0.5,0.5s0.3,0.3,0.5,0.5s0.3,0.3,0.5,0.5s0.3,0.3,0.5,0.5s0.3,0.3,0.5,0.5s0.3,0.3,0.5,0.5
				s0.3,0.3,0.5,0.5c0.2,0.2,0.3,0.3,0.5,0.5s0.3,0.3,0.5,0.5s0.3,0.3,0.5,0.5s0.3,0.3,0.5,0.5s0.3,0.3,0.5,0.5s0.3,0.3,0.5,0.5
				s0.3,0.3,0.5,0.5c0.2,0.2,0.3,0.3,0.5,0.5s0.3,0.3,0.5,0.5s0.3,0.3,0.5,0.5s0.3,0.3,0.5,0.5s0.3,0.3,0.5,0.5s0.3,0.3,0.5,0.5
				s0.3,0.3,0.5,0.5c0.2,0.2,0.3,0.3,0.5,0.5s0.3,0.3,0.5,0.5s0.3,0.3,0.5,0.5s0.3,0.3,0.5,0.5s0.3,0.3,0.5,0.5s0.3,0.3,0.5,0.5
				s0.3,0.3,0.5,0.5s0.3,0.3,0.5,0.5s0.3,0.3,0.5,0.5c0.2,0.2,0.3,0.3,0.5,0.5s0.3,0.3,0.5,0.5s0.3,0.3,0.5,0.5s0.3,0.3,0.5,0.5
				s0.3,0.3,0.5,0.5s0.3,0.3,0.5,0.5s0.3,0.3,0.5,0.5c0.2,0.2,0.3,0.3,0.5,0.5s0.3,0.3,0.5,0.5s0.3,0.3,0.5,0.5s0.3,0.3,0.5,0.5
				s0.3,0.3,0.5,0.5s0.3,0.3,0.5,0.5s0.3,0.3,0.5,0.5s0.3,0.3,0.5,0.5s0.3,0.3,0.5,0.5c0.2,0.2,0.3,0.3,0.5,0.5s0.3,0.3,0.5,0.5
				s0.3,0.3,0.5,0.5s0.3,0.3,0.5,0.5s0.3,0.3,0.5,0.5s0.3,0.3,0.5,0.5s0.3,0.3,0.5,0.5c0.2,0.2,0.3,0.3,0.5,0.5s0.3,0.3,0.5,0.5
				s0.3,0.3,0.5,0.5s0.3,0.3,0.5,0.5s0.3,0.3,0.5,0.5s0.3,0.3,0.5,0.5s0.3,0.3,0.5,0.5c0.2,0.2,0.3,0.3,0.5,0.5s0.3,0.3,0.5,0.5
				s0.3,0.3,0.5,0.5s0.3,0.3,0.5,0.5s0.3,0.3,0.5,0.5s0.3,0.3,0.5,0.5s0.3,0.3,0.5,0.5s0.3,0.3,0.5,0.5s0.3,0.3,0.5,0.5
				c0.2,0.2,0.3,0.3,0.5,0.5s0.3,0.3,0.5,0.5c11.4,10.8,28.3,12.5,37.8,12.5c26.7,0,56.7-12.6,59.2-40.4
				c3.2-34.9,5.9-69.4,8.2-103.4c9.6,9.9,24.7,15.7,42.5,15.7c2.9,0,5.7-0.2,8.5-0.5c1.1,17.9,2.2,35.9,3.4,54
				c0.5,8.2,3.9,15.4,9.3,21.1c0.2,0.2,0.3,0.3,0.5,0.5s0.3,0.3,0.5,0.5s0.3,0.3,0.5,0.5s0.3,0.3,0.5,0.5s0.3,0.3,0.5,0.5
				s0.3,0.3,0.5,0.5s0.3,0.3,0.5,0.5s0.3,0.3,0.5,0.5s0.3,0.3,0.5,0.5c0.2,0.2,0.3,0.3,0.5,0.5s0.3,0.3,0.5,0.5s0.3,0.3,0.5,0.5
				s0.3,0.3,0.5,0.5s0.3,0.3,0.5,0.5s0.3,0.3,0.5,0.5s0.3,0.3,0.5,0.5c0.2,0.2,0.3,0.3,0.5,0.5s0.3,0.3,0.5,0.5s0.3,0.3,0.5,0.5
				s0.3,0.3,0.5,0.5s0.3,0.3,0.5,0.5s0.3,0.3,0.5,0.5s0.3,0.3,0.5,0.5s0.3,0.3,0.5,0.5s0.3,0.3,0.5,0.5c0.2,0.2,0.3,0.3,0.5,0.5
				s0.3,0.3,0.5,0.5s0.3,0.3,0.5,0.5s0.3,0.3,0.5,0.5s0.3,0.3,0.5,0.5s0.3,0.3,0.5,0.5s0.3,0.3,0.5,0.5c0.2,0.2,0.3,0.3,0.5,0.5
				s0.3,0.3,0.5,0.5s0.3,0.3,0.5,0.5s0.3,0.3,0.5,0.5s0.3,0.3,0.5,0.5s0.3,0.3,0.5,0.5s0.3,0.3,0.5,0.5c0.2,0.2,0.3,0.3,0.5,0.5
				s0.3,0.3,0.5,0.5s0.3,0.3,0.5,0.5s0.3,0.3,0.5,0.5s0.3,0.3,0.5,0.5s0.3,0.3,0.5,0.5s0.3,0.3,0.5,0.5s0.3,0.3,0.5,0.5
				s0.3,0.3,0.5,0.5c0.2,0.2,0.3,0.3,0.5,0.5s0.3,0.3,0.5,0.5s0.3,0.3,0.5,0.5s0.3,0.3,0.5,0.5s0.3,0.3,0.5,0.5s0.3,0.3,0.5,0.5
				s0.3,0.3,0.5,0.5c0.2,0.2,0.3,0.3,0.5,0.5s0.3,0.3,0.5,0.5s0.3,0.3,0.5,0.5s0.3,0.3,0.5,0.5s0.3,0.3,0.5,0.5s0.3,0.3,0.5,0.5
				s0.3,0.3,0.5,0.5s0.3,0.3,0.5,0.5s0.3,0.3,0.5,0.5c0.2,0.2,0.3,0.3,0.5,0.5s0.3,0.3,0.5,0.5s0.3,0.3,0.5,0.5s0.3,0.3,0.5,0.5
				s0.3,0.3,0.5,0.5s0.3,0.3,0.5,0.5s0.3,0.3,0.5,0.5c0.2,0.2,0.3,0.3,0.5,0.5s0.3,0.3,0.5,0.5s0.3,0.3,0.5,0.5s0.3,0.3,0.5,0.5
				s0.3,0.3,0.5,0.5s0.3,0.3,0.5,0.5c8.6,9.4,23,15.1,40.6,15.1c19.6,0,37.5-6.5,47.7-17.5c7-7.4,10.4-16.9,9.8-26.7
				c-0.7-10.9-1.5-22.3-2.2-33.8c0,0,0,0,0.1,0.1c0.2,0.2,0.3,0.3,0.5,0.5c0.2,0.2,0.3,0.3,0.5,0.5s0.3,0.3,0.5,0.5
				c0.2,0.2,0.3,0.3,0.5,0.5c0.2,0.2,0.3,0.3,0.5,0.5s0.3,0.3,0.5,0.5c0.2,0.2,0.3,0.3,0.5,0.5s0.3,0.3,0.5,0.5
				c0.2,0.2,0.3,0.3,0.5,0.5s0.3,0.3,0.5,0.5c0.2,0.2,0.3,0.3,0.5,0.5s0.3,0.3,0.5,0.5s0.3,0.3,0.5,0.5c0.2,0.2,0.3,0.3,0.5,0.5
				s0.3,0.3,0.5,0.5c0.2,0.2,0.3,0.3,0.5,0.5s0.3,0.3,0.5,0.5c0.2,0.2,0.3,0.3,0.5,0.5s0.3,0.3,0.5,0.5c0.2,0.2,0.3,0.3,0.5,0.5
				c0.2,0.2,0.3,0.3,0.5,0.5s0.3,0.3,0.5,0.5c0.2,0.2,0.3,0.3,0.5,0.5s0.3,0.3,0.5,0.5c0.2,0.2,0.3,0.3,0.5,0.5s0.3,0.3,0.5,0.5
				c0.2,0.2,0.3,0.3,0.5,0.5s0.3,0.3,0.5,0.5s0.3,0.3,0.5,0.5c0.2,0.2,0.3,0.3,0.5,0.5s0.3,0.3,0.5,0.5c0.2,0.2,0.3,0.3,0.5,0.5
				s0.3,0.3,0.5,0.5c0.2,0.2,0.3,0.3,0.5,0.5s0.3,0.3,0.5,0.5c0.2,0.2,0.3,0.3,0.5,0.5c0.2,0.2,0.3,0.3,0.5,0.5s0.3,0.3,0.5,0.5
				c0.2,0.2,0.3,0.3,0.5,0.5s0.3,0.3,0.5,0.5c0.2,0.2,0.3,0.3,0.5,0.5s0.3,0.3,0.5,0.5c0.2,0.2,0.3,0.3,0.5,0.5
				c0.2,0.2,0.3,0.3,0.5,0.5s0.3,0.3,0.5,0.5c0.2,0.2,0.3,0.3,0.5,0.5s0.3,0.3,0.5,0.5c15.6,15.9,34.5,27.9,55.6,34.6
				c16.5,5.2,33.1,7.8,49.5,7.8c42.3,0,83-17.9,114.9-49.9c1.3,2.9,3.1,5.6,5.3,8c0.7,0.8,1.4,1.5,2.2,2.2c0.2,0.2,0.3,0.3,0.5,0.5
				c0.2,0.2,0.3,0.3,0.5,0.5s0.3,0.3,0.5,0.5s0.3,0.3,0.5,0.5s0.3,0.3,0.5,0.5s0.3,0.3,0.5,0.5s0.3,0.3,0.5,0.5s0.3,0.3,0.5,0.5
				s0.3,0.3,0.5,0.5s0.3,0.3,0.5,0.5c0.2,0.2,0.3,0.3,0.5,0.5s0.3,0.3,0.5,0.5s0.3,0.3,0.5,0.5s0.3,0.3,0.5,0.5s0.3,0.3,0.5,0.5
				s0.3,0.3,0.5,0.5s0.3,0.3,0.5,0.5c0.2,0.2,0.3,0.3,0.5,0.5s0.3,0.3,0.5,0.5s0.3,0.3,0.5,0.5s0.3,0.3,0.5,0.5s0.3,0.3,0.5,0.5
				s0.3,0.3,0.5,0.5s0.3,0.3,0.5,0.5s0.3,0.3,0.5,0.5s0.3,0.3,0.5,0.5s0.3,0.3,0.5,0.5s0.3,0.3,0.5,0.5s0.3,0.3,0.5,0.5
				s0.3,0.3,0.5,0.5s0.3,0.3,0.5,0.5s0.3,0.3,0.5,0.5s0.3,0.3,0.5,0.5c0.2,0.2,0.3,0.3,0.5,0.5s0.3,0.3,0.5,0.5s0.3,0.3,0.5,0.5
				s0.3,0.3,0.5,0.5s0.3,0.3,0.5,0.5s0.3,0.3,0.5,0.5s0.3,0.3,0.5,0.5c0.2,0.2,0.3,0.3,0.5,0.5s0.3,0.3,0.5,0.5s0.3,0.3,0.5,0.5
				s0.3,0.3,0.5,0.5s0.3,0.3,0.5,0.5s0.3,0.3,0.5,0.5s0.3,0.3,0.5,0.5s0.3,0.3,0.5,0.5s0.3,0.3,0.5,0.5c0.2,0.2,0.3,0.3,0.5,0.5
				s0.3,0.3,0.5,0.5s0.3,0.3,0.5,0.5s0.3,0.3,0.5,0.5s0.3,0.3,0.5,0.5s0.3,0.3,0.5,0.5s0.3,0.3,0.5,0.5c0.2,0.2,0.3,0.3,0.5,0.5
				s0.3,0.3,0.5,0.5s0.3,0.3,0.5,0.5s0.3,0.3,0.5,0.5s0.3,0.3,0.5,0.5s0.3,0.3,0.5,0.5s0.3,0.3,0.5,0.5s0.3,0.3,0.5,0.5
				s0.3,0.3,0.5,0.5s0.3,0.3,0.5,0.5s0.3,0.3,0.5,0.5s0.3,0.3,0.5,0.5s0.3,0.3,0.5,0.5s0.3,0.3,0.5,0.5s0.3,0.3,0.5,0.5
				s0.3,0.3,0.5,0.5c0.2,0.2,0.3,0.3,0.5,0.5s0.3,0.3,0.5,0.5s0.3,0.3,0.5,0.5s0.3,0.3,0.5,0.5s0.3,0.3,0.5,0.5
				c11.4,10.8,28.3,12.5,37.8,12.5c26.7,0,56.7-12.6,59.2-40.4c3.2-34.9,5.9-69.4,8.2-103.4c9.5,9.9,24.7,15.7,42.5,15.7
				c2.9,0,5.7-0.2,8.5-0.5c1.1,17.9,2.2,35.9,3.4,54c0.5,8.2,3.8,15.4,9.3,21.1c0.2,0.2,0.3,0.3,0.5,0.5s0.3,0.3,0.5,0.5
				s0.3,0.3,0.5,0.5s0.3,0.3,0.5,0.5s0.3,0.3,0.5,0.5s0.3,0.3,0.5,0.5s0.3,0.3,0.5,0.5s0.3,0.3,0.5,0.5s0.3,0.3,0.5,0.5
				s0.3,0.3,0.5,0.5s0.3,0.3,0.5,0.5s0.3,0.3,0.5,0.5s0.3,0.3,0.5,0.5s0.3,0.3,0.5,0.5s0.3,0.3,0.5,0.5s0.3,0.3,0.5,0.5
				s0.3,0.3,0.5,0.5s0.3,0.3,0.5,0.5s0.3,0.3,0.5,0.5s0.3,0.3,0.5,0.5s0.3,0.3,0.5,0.5s0.3,0.3,0.5,0.5s0.3,0.3,0.5,0.5
				s0.3,0.3,0.5,0.5s0.3,0.3,0.5,0.5s0.3,0.3,0.5,0.5s0.3,0.3,0.5,0.5s0.3,0.3,0.5,0.5s0.3,0.3,0.5,0.5s0.3,0.3,0.5,0.5
				s0.3,0.3,0.5,0.5s0.3,0.3,0.5,0.5s0.3,0.3,0.5,0.5s0.3,0.3,0.5,0.5s0.3,0.3,0.5,0.5s0.3,0.3,0.5,0.5s0.3,0.3,0.5,0.5
				s0.3,0.3,0.5,0.5s0.3,0.3,0.5,0.5s0.3,0.3,0.5,0.5s0.3,0.3,0.5,0.5s0.3,0.3,0.5,0.5s0.3,0.3,0.5,0.5s0.3,0.3,0.5,0.5
				s0.3,0.3,0.5,0.5s0.3,0.3,0.5,0.5s0.3,0.3,0.5,0.5s0.3,0.3,0.5,0.5s0.3,0.3,0.5,0.5s0.3,0.3,0.5,0.5s0.3,0.3,0.5,0.5
				s0.3,0.3,0.5,0.5s0.3,0.3,0.5,0.5s0.3,0.3,0.5,0.5s0.3,0.3,0.5,0.5s0.3,0.3,0.5,0.5s0.3,0.3,0.5,0.5s0.3,0.3,0.5,0.5
				s0.3,0.3,0.5,0.5s0.3,0.3,0.5,0.5s0.3,0.3,0.5,0.5s0.3,0.3,0.5,0.5s0.3,0.3,0.5,0.5s0.3,0.3,0.5,0.5s0.3,0.3,0.5,0.5
				s0.3,0.3,0.5,0.5s0.3,0.3,0.5,0.5s0.3,0.3,0.5,0.5s0.3,0.3,0.5,0.5s0.3,0.3,0.5,0.5s0.3,0.3,0.5,0.5s0.3,0.3,0.5,0.5
				s0.3,0.3,0.5,0.5s0.3,0.3,0.5,0.5s0.3,0.3,0.5,0.5s0.3,0.3,0.5,0.5s0.3,0.3,0.5,0.5c8.6,9.4,23,15.1,40.6,15.1
				c19.7,0,37.5-6.5,47.7-17.5c7-7.4,10.4-16.9,9.8-26.7c-2.4-35.8-4.8-74.6-6.9-115.4c0.1,0.1,0.2,0.2,0.3,0.3c0,0,0,0.1,0.1,0.1
				c0.1,0.2,0.3,0.3,0.4,0.4c0,0,0,0.1,0.1,0.1c0.1,0.2,0.3,0.3,0.4,0.4c0,0,0,0,0.1,0.1c0.1,0.2,0.3,0.3,0.4,0.4c0,0,0,0.1,0.1,0.1
				c0.1,0.2,0.3,0.3,0.4,0.4c0,0,0,0,0.1,0.1c0.1,0.2,0.3,0.3,0.4,0.4c0,0,0,0.1,0.1,0.1c0.1,0.2,0.3,0.3,0.4,0.4c0,0,0,0.1,0.1,0.1
				c0.1,0.2,0.3,0.3,0.4,0.4c0,0,0,0.1,0.1,0.1c0.1,0.2,0.3,0.3,0.4,0.4c0,0,0,0.1,0.1,0.1c0.1,0.2,0.3,0.3,0.4,0.4
				c0,0,0,0.1,0.1,0.1c0.1,0.2,0.3,0.3,0.4,0.4c0,0,0,0.1,0.1,0.1c0.1,0.2,0.3,0.3,0.4,0.4c0,0,0,0,0.1,0.1c0.1,0.2,0.3,0.3,0.4,0.4
				c0,0,0,0.1,0.1,0.1c0.1,0.2,0.3,0.3,0.4,0.4c0,0,0,0.1,0.1,0.1c0.1,0.2,0.3,0.3,0.4,0.4c0,0,0,0.1,0.1,0.1
				c0.1,0.2,0.3,0.3,0.4,0.4c0,0,0,0.1,0.1,0.1c0.1,0.2,0.3,0.3,0.4,0.4c0,0,0,0.1,0.1,0.1c0.1,0.2,0.3,0.3,0.4,0.4
				c0,0,0,0.1,0.1,0.1c0.1,0.2,0.3,0.3,0.4,0.4c0,0,0,0,0.1,0.1c0.1,0.2,0.3,0.3,0.4,0.4c0,0,0,0.1,0.1,0.1c0.1,0.2,0.3,0.3,0.4,0.4
				c0,0,0,0,0.1,0.1c0.1,0.2,0.3,0.3,0.4,0.4c0,0,0,0.1,0.1,0.1c0.1,0.2,0.3,0.3,0.4,0.4c0,0,0,0.1,0.1,0.1c0.1,0.2,0.3,0.3,0.4,0.4
				c0,0,0,0.1,0.1,0.1c0.1,0.2,0.3,0.3,0.4,0.4c0,0,0,0.1,0.1,0.1c0.1,0.2,0.3,0.3,0.4,0.4c0,0,0,0,0.1,0.1c0.1,0.2,0.3,0.3,0.4,0.4
				c0,0,0,0.1,0.1,0.1c0.1,0.2,0.3,0.3,0.4,0.4c0,0,0,0,0.1,0.1c0.1,0.2,0.3,0.3,0.4,0.4c0,0,0,0.1,0.1,0.1c0.1,0.2,0.3,0.3,0.4,0.4
				c0,0,0,0.1,0.1,0.1c0.1,0.2,0.3,0.3,0.4,0.4c0,0,0,0.1,0.1,0.1c0.1,0.2,0.3,0.3,0.4,0.4c0,0,0,0.1,0.1,0.1
				c0.1,0.2,0.3,0.3,0.4,0.4c0,0,0,0.1,0.1,0.1c0.1,0.2,0.3,0.3,0.4,0.4c0,0,0,0.1,0.1,0.1c0.1,0.2,0.3,0.3,0.4,0.4c0,0,0,0,0.1,0.1
				c0.1,0.2,0.3,0.3,0.4,0.4c0,0,0,0.1,0.1,0.1c0.1,0.2,0.3,0.3,0.4,0.4c0,0,0,0,0.1,0.1c0.1,0.2,0.3,0.3,0.4,0.4c0,0,0,0.1,0.1,0.1
				c0.1,0.2,0.3,0.3,0.4,0.4c0,0,0,0.1,0.1,0.1c0.1,0.2,0.3,0.3,0.4,0.4c0,0,0,0.1,0.1,0.1c0.1,0.2,0.3,0.3,0.4,0.4
				c0,0,0,0.1,0.1,0.1c0.1,0.2,0.3,0.3,0.4,0.4c0,0,0,0,0.1,0.1c0.1,0.2,0.3,0.3,0.4,0.4c0,0,0,0.1,0.1,0.1c0.2,0.2,0.3,0.3,0.4,0.4
				c0,0,0,0,0.1,0.1c0.1,0.2,0.3,0.3,0.4,0.4c0,0,0,0.1,0.1,0.1c0.1,0.2,0.3,0.3,0.4,0.4c0,0,0,0.1,0.1,0.1c0.1,0.2,0.3,0.3,0.4,0.4
				c0,0,0,0.1,0.1,0.1c0.1,0.2,0.3,0.3,0.4,0.4c0,0,0,0.1,0.1,0.1c0.1,0.2,0.3,0.3,0.4,0.4c0,0,0,0.1,0.1,0.1
				c0.1,0.2,0.3,0.3,0.4,0.4c0,0,0,0.1,0.1,0.1c0.1,0.2,0.3,0.3,0.4,0.4c0,0,0,0,0.1,0.1c0.1,0.2,0.3,0.3,0.4,0.4c0,0,0,0.1,0.1,0.1
				c0.1,0.2,0.3,0.3,0.4,0.4c0,0,0,0.1,0.1,0.1c0.1,0.2,0.3,0.3,0.4,0.4c0,0,0,0.1,0.1,0.1c0.1,0.2,0.3,0.3,0.4,0.4
				c0,0,0,0.1,0.1,0.1c0.1,0.2,0.3,0.3,0.4,0.4c0,0,0,0.1,0.1,0.1c0.1,0.2,0.3,0.3,0.4,0.4c0,0,0,0.1,0.1,0.1
				c0.2,0.2,0.3,0.3,0.4,0.4c0,0,0,0,0.1,0.1c0.1,0.2,0.3,0.3,0.4,0.4c0,0,0,0.1,0.1,0.1c0.1,0.2,0.3,0.3,0.4,0.4c0,0,0,0,0.1,0.1
				c0.1,0.2,0.3,0.3,0.4,0.4c0,0,0,0.1,0.1,0.1c0.1,0.2,0.3,0.3,0.4,0.4c0,0,0,0.1,0.1,0.1c0.1,0.2,0.3,0.3,0.4,0.4
				c0,0,0,0.1,0.1,0.1c0.1,0.2,0.3,0.3,0.4,0.4c0,0,0,0.1,0.1,0.1c27.3,28.3,63.7,43.9,102.3,43.9c47.7,0,93.6-23.6,123.3-61.3
				c0.1,0.1,0.2,0.2,0.3,0.3c0.2,0.2,0.3,0.3,0.5,0.5s0.3,0.3,0.5,0.5s0.3,0.3,0.5,0.5s0.3,0.3,0.5,0.5s0.3,0.3,0.5,0.5
				s0.3,0.3,0.5,0.5s0.3,0.3,0.5,0.5s0.3,0.3,0.5,0.5s0.3,0.3,0.5,0.5s0.3,0.3,0.5,0.5s0.3,0.3,0.5,0.5s0.3,0.3,0.5,0.5
				s0.3,0.3,0.5,0.5s0.3,0.3,0.5,0.5s0.3,0.3,0.5,0.5s0.3,0.3,0.5,0.5s0.3,0.3,0.5,0.5s0.3,0.3,0.5,0.5s0.3,0.3,0.5,0.5
				s0.3,0.3,0.5,0.5s0.3,0.3,0.5,0.5s0.3,0.3,0.5,0.5s0.3,0.3,0.5,0.5s0.3,0.3,0.5,0.5s0.3,0.3,0.5,0.5s0.3,0.3,0.5,0.5
				s0.3,0.3,0.5,0.5s0.3,0.3,0.5,0.5s0.3,0.3,0.5,0.5s0.3,0.3,0.5,0.5s0.3,0.3,0.5,0.5s0.3,0.3,0.5,0.5s0.3,0.3,0.5,0.5
				s0.3,0.3,0.5,0.5s0.3,0.3,0.5,0.5s0.3,0.3,0.5,0.5s0.3,0.3,0.5,0.5s0.3,0.3,0.5,0.5s0.3,0.3,0.5,0.5s0.3,0.3,0.5,0.5
				s0.3,0.3,0.5,0.5s0.3,0.3,0.5,0.5s0.3,0.3,0.5,0.5s0.3,0.3,0.5,0.5s0.3,0.3,0.5,0.5s0.3,0.3,0.5,0.5s0.3,0.3,0.5,0.5
				s0.3,0.3,0.5,0.5s0.3,0.3,0.5,0.5s0.3,0.3,0.5,0.5s0.3,0.3,0.5,0.5s0.3,0.3,0.5,0.5s0.3,0.3,0.5,0.5s0.3,0.3,0.5,0.5
				s0.3,0.3,0.5,0.5s0.3,0.3,0.5,0.5s0.3,0.3,0.5,0.5s0.3,0.3,0.5,0.5s0.3,0.3,0.5,0.5s0.3,0.3,0.5,0.5s0.3,0.3,0.5,0.5
				s0.3,0.3,0.5,0.5s0.3,0.3,0.5,0.5s0.3,0.3,0.5,0.5c8.7,9.4,23,15,40.6,15c12.8,0,24.8-2.8,34.5-7.8c2,11.9,4.5,23.5,7.4,34.9
				c1.6,6.2,4.7,11.6,9.1,16.1c0.2,0.2,0.3,0.3,0.5,0.5s0.3,0.3,0.5,0.5s0.3,0.3,0.5,0.5s0.3,0.3,0.5,0.5s0.3,0.3,0.5,0.5
				s0.3,0.3,0.5,0.5s0.3,0.3,0.5,0.5s0.3,0.3,0.5,0.5s0.3,0.3,0.5,0.5s0.3,0.3,0.5,0.5s0.3,0.3,0.5,0.5s0.3,0.3,0.5,0.5
				s0.3,0.3,0.5,0.5s0.3,0.3,0.5,0.5s0.3,0.3,0.5,0.5s0.3,0.3,0.5,0.5s0.3,0.3,0.5,0.5s0.3,0.3,0.5,0.5s0.3,0.3,0.5,0.5
				s0.3,0.3,0.5,0.5s0.3,0.3,0.5,0.5s0.3,0.3,0.5,0.5s0.3,0.3,0.5,0.5s0.3,0.3,0.5,0.5s0.3,0.3,0.5,0.5s0.3,0.3,0.5,0.5
				s0.3,0.3,0.5,0.5s0.3,0.3,0.5,0.5s0.3,0.3,0.5,0.5s0.3,0.3,0.5,0.5s0.3,0.3,0.5,0.5s0.3,0.3,0.5,0.5s0.3,0.3,0.5,0.5
				s0.3,0.3,0.5,0.5s0.3,0.3,0.5,0.5s0.3,0.3,0.5,0.5s0.3,0.3,0.5,0.5s0.3,0.3,0.5,0.5s0.3,0.3,0.5,0.5s0.3,0.3,0.5,0.5
				s0.3,0.3,0.5,0.5s0.3,0.3,0.5,0.5s0.3,0.3,0.5,0.5s0.3,0.3,0.5,0.5s0.3,0.3,0.5,0.5s0.3,0.3,0.5,0.5s0.3,0.3,0.5,0.5
				s0.3,0.3,0.5,0.5s0.3,0.3,0.5,0.5s0.3,0.3,0.5,0.5s0.3,0.3,0.5,0.5s0.3,0.3,0.5,0.5s0.3,0.3,0.5,0.5s0.3,0.3,0.5,0.5
				s0.3,0.3,0.5,0.5s0.3,0.3,0.5,0.5s0.3,0.3,0.5,0.5s0.3,0.3,0.5,0.5s0.3,0.3,0.5,0.5s0.3,0.3,0.5,0.5s0.3,0.3,0.5,0.5
				s0.3,0.3,0.5,0.5s0.3,0.3,0.5,0.5s0.3,0.3,0.5,0.5s0.3,0.3,0.5,0.5s0.3,0.3,0.5,0.5s0.3,0.3,0.5,0.5s0.3,0.3,0.5,0.5
				s0.3,0.3,0.5,0.5s0.3,0.3,0.5,0.5s0.3,0.3,0.5,0.5s0.3,0.3,0.5,0.5s0.3,0.3,0.5,0.5s0.3,0.3,0.5,0.5s0.3,0.3,0.5,0.5
				s0.3,0.3,0.5,0.5s0.3,0.3,0.5,0.5c9.1,9.8,23.9,15.4,41.9,15.4c16.6,0,38.2-5.1,49.3-19.5c6.3-8.2,8.4-18.1,5.9-27.9
				c-10.5-40.6-13.9-85.4-10.7-132.6c4.1,5.6,8.6,10.9,13.4,15.8c0.2,0.2,0.3,0.3,0.5,0.5c0.2,0.2,0.3,0.3,0.5,0.5s0.3,0.3,0.5,0.5
				c0.2,0.2,0.3,0.3,0.5,0.5s0.3,0.3,0.5,0.5s0.3,0.3,0.5,0.5c0.2,0.2,0.3,0.3,0.5,0.5c0.2,0.2,0.3,0.3,0.5,0.5
				c0.2,0.2,0.3,0.3,0.5,0.5s0.3,0.3,0.5,0.5c0.2,0.2,0.3,0.3,0.5,0.5s0.3,0.3,0.5,0.5c0.2,0.2,0.3,0.3,0.5,0.5s0.3,0.3,0.5,0.5
				s0.3,0.3,0.5,0.5c0.2,0.2,0.3,0.3,0.5,0.5s0.3,0.3,0.5,0.5c0.2,0.2,0.3,0.3,0.5,0.5s0.3,0.3,0.5,0.5c0.2,0.2,0.3,0.3,0.5,0.5
				s0.3,0.3,0.5,0.5s0.3,0.3,0.5,0.5c0.2,0.2,0.3,0.3,0.5,0.5c0.2,0.2,0.3,0.3,0.5,0.5c0.2,0.2,0.3,0.3,0.5,0.5s0.3,0.3,0.5,0.5
				c0.2,0.2,0.3,0.3,0.5,0.5s0.3,0.3,0.5,0.5c0.2,0.2,0.3,0.3,0.5,0.5s0.3,0.3,0.5,0.5s0.3,0.3,0.5,0.5c0.2,0.2,0.3,0.3,0.5,0.5
				s0.3,0.3,0.5,0.5c0.2,0.2,0.3,0.3,0.5,0.5s0.3,0.3,0.5,0.5c0.2,0.2,0.3,0.3,0.5,0.5s0.3,0.3,0.5,0.5s0.3,0.3,0.5,0.5
				c0.2,0.2,0.3,0.3,0.5,0.5s0.3,0.3,0.5,0.5c0.2,0.2,0.3,0.3,0.5,0.5s0.3,0.3,0.5,0.5c0.2,0.2,0.3,0.3,0.5,0.5s0.3,0.3,0.5,0.5
				s0.3,0.3,0.5,0.5c0.2,0.2,0.3,0.3,0.5,0.5c0.2,0.2,0.3,0.3,0.5,0.5c0.2,0.2,0.3,0.3,0.5,0.5s0.3,0.3,0.5,0.5
				c0.2,0.2,0.3,0.3,0.5,0.5s0.3,0.3,0.5,0.5c0.2,0.2,0.3,0.3,0.5,0.5s0.3,0.3,0.5,0.5s0.3,0.3,0.5,0.5c0.2,0.2,0.3,0.3,0.5,0.5
				s0.3,0.3,0.5,0.5c0.2,0.2,0.3,0.3,0.5,0.5s0.3,0.3,0.5,0.5c0.2,0.2,0.3,0.3,0.5,0.5s0.3,0.3,0.5,0.5s0.3,0.3,0.5,0.5
				c0.2,0.2,0.3,0.3,0.5,0.5c0.2,0.2,0.3,0.3,0.5,0.5c0.2,0.2,0.3,0.3,0.5,0.5s0.3,0.3,0.5,0.5c0.2,0.2,0.3,0.3,0.5,0.5
				s0.3,0.3,0.5,0.5c0.2,0.2,0.3,0.3,0.5,0.5s0.3,0.3,0.5,0.5s0.3,0.3,0.5,0.5c0.2,0.2,0.3,0.3,0.5,0.5s0.3,0.3,0.5,0.5
				c0.2,0.2,0.3,0.3,0.5,0.5s0.3,0.3,0.5,0.5c0.2,0.2,0.3,0.3,0.5,0.5s0.3,0.3,0.5,0.5s0.3,0.3,0.5,0.5c10.8,11,23.4,20.2,37.5,27.1
				c19.9,9.6,48.3,14.9,80,14.9c45.4,0,103.8-11.8,131.4-45C1869.5,1195.1,1861,1125.7,1854.8,1075z"/>
			<g>
				<path class="st0" d="M391,779.2c0.8-23.9-61.6-18.8-64.4,5.6c-10.6,92.7-32.2,184.7-57.8,275c-26.4-92.2-49.2-185.9-62.3-280.6
					c-3.4-24.3-66.1-18.9-64.4,5.6c11.6,171.1,4.5,344.2-11.1,514.8c-2.1,22.5,62.1,19.9,64.4-5.6c6.4-70,11.2-140.5,14.1-211
					c8.6,29.6,17.6,59,26.8,88.2c6.7,21.3,56.9,20.8,63.7-0.8c9.7-31.1,19.2-62.4,28.2-94c2.7,74.5,6.7,149,11.6,223.2
					c1.6,24.2,66,19.1,64.4-5.6C392.7,1123,385.1,950.7,391,779.2z"/>
				<path class="st0" d="M576,957.6c-29.4-15.2-120.3-57.5-89.8-107.5c28.1-46,90.2,63.6,102.9,92.6c0.5,4,2.8,7,6.5,9.3
					c0.6,0.4,1.2,0.7,1.9,1c0.4,0.2,0.8,0.4,1.2,0.6c12.9,6.1,36.2,3.3,47.2-5.8c0.2-0.2,0.5-0.3,0.7-0.5c0.6-0.5,1.1-1.1,1.6-1.7
					c2.6-2.8,4.3-6.1,4.4-10c0.6-41.4,7.4-83.5,22.2-122.3c9.3-24.2-53.9-25.7-62.2-4c-4.9,12.9-8.7,26.3-12,39.9
					c-34.2-38-79.9-64.1-130.2-46.2c-56.5,20.1-62.5,82-27.5,124.8c30.9,37.8,78.5,48.3,119,71.5c70.4,40.3,101.1,115.6,70.4,194.3
					c-20.3,51.9-93,97.6-132.2,35.3c-13.1-20.7-15.5-50-13.5-73.9c2-23.9,11.8-80.1,47.7-76.3c42.1,4.4,2.2,70.2-12.7,84.2
					c-21.3,20,40.6,27.8,56.5,12.9c83.1-77.9-5.6-173.8-97.5-123.1c-94.1,51.9-70.6,213.3,28.2,244.2
					c128,40.1,225.3-105.2,191.7-220C681.7,1012.3,631.2,986.1,576,957.6z"/>
				<path class="st0" d="M984.5,779.2c0.8-23.9-61.6-18.8-64.4,5.6c-10.6,92.7-32.2,184.7-57.8,275C835.9,967.7,813.1,874,800,779.2
					c-3.4-24.3-66-18.9-64.4,5.6c11.6,171.1,4.5,344.2-11.1,514.8c-2,22.5,62,19.9,64.4-5.6c6.4-70,11.2-140.5,14.1-211
					c8.7,29.6,17.6,59,26.8,88.2c6.7,21.3,56.9,20.8,63.7-0.8c9.7-31.1,19.2-62.4,28.2-94c2.7,74.5,6.7,149,11.6,223.2
					c1.6,24.2,66,19.1,64.4-5.6C986.3,1123,978.7,950.7,984.5,779.2z"/>
				<path class="st0" d="M1184.9,804.9c-37.8,0-65.8,17.2-85.1,43.1c-51.3,22.8-69.6,92.4-78.4,142.5
					c-11.8,67.1-12.9,151.4,38,204.1c65.6,68,174.2,37.4,210.8-44.5C1306.8,1068.3,1321.3,805,1184.9,804.9z M1215.6,1122.6
					c-9,29.5-29.8,77.3-67.3,71.7c-32.5-4.8-51.6-43.8-60.1-71.4c-9.6-31.3-11-64.8-7.6-97.5c17.3-168.1,112.6-169.5,112.6-169.5
					c26.6,12.1,30.7,99.1,32.8,124.2C1229.9,1027.3,1229.5,1077,1215.6,1122.6z"/>
				<path class="st0" d="M1478.7,964c-21.3,27.6-50.7,62.1-84.4,80.6c35.5-68.7,73.8-136,114.5-201.7c12.5-20.2-50.5-24.1-62.9-4
					c-20.1,32.5-39.5,65.3-58.4,98.5c4-41,8.6-81.8,12.8-122.1c2.3-22.3-61.7-19.9-64.4,5.6c-13.1,125.2-30.1,255.4-21.2,381.4
					c1.7,24.2,66.2,19.1,64.4-5.6c-2.5-35.4-2.8-71.1-1.9-106.9c25.4-5.1,49.1-15.5,70.8-29.5c-18.5,79-23.4,162.7-3.4,240.1
					c6.4,24.6,70.2,16.6,64.4-5.6c-27.3-105.7-8.2-222.3,29.8-322.3C1548.5,946.6,1488.8,950.7,1478.7,964z"/>
				<path class="st0" d="M1813.2,1030.3c-2.2-24.4-66.7-18.8-64.4,5.6c3.3,36.1,15.3,94.2,1.4,129.7c-15.9,40.5-79.4,40.2-111.1,6
					c-69.7-75.1,3.1-181.5,80.5-207.9c33.4-11.4,0.9-32.8-19.1-31.6c-34.8,2.2-82.3,0.6-58.6-44.8c5.5-10.5,36.4-42.8,47-40.8
					c10.5,2,21.2,23.3,26.9,32.2c10.3,16.1,18.5,35.4,24.2,53.6c-0.3,15.2,26.6,18.9,45.6,12.8c12.3-3.1,21.5-9.7,18.7-18.4
					c0.6-36.2,2.5-81.7,8.1-113.3c4.8-27.4-59-26.1-62.9-4c-1.4,8.1-2.5,16.2-3.5,24.3c-42.6-34.6-98.7-34-151.6,28.6
					c-49.6,58.6-13.5,88.1,36.4,99.7c-41.5,26.9-72.4,66.6-79.7,119.1c-7.6,55.1,14.8,113,66.7,138.1
					c45.8,22.1,151.7,16.5,185.7-24.5C1834.3,1157.7,1816.9,1070.6,1813.2,1030.3z"/>
			</g>
			<g>
				<path class="st2" d="M369.6,765c0.8-23.9-61.6-18.8-64.4,5.6c-10.6,92.7-32.2,184.7-57.8,275c-26.4-92.2-49.2-185.9-62.3-280.6
					c-3.4-24.3-66.1-18.9-64.4,5.6c11.6,171.1,4.5,344.2-11.1,514.8c-2.1,22.5,62.1,19.9,64.4-5.6c6.4-70,11.2-140.5,14.1-211
					c8.6,29.6,17.6,59,26.8,88.2c6.7,21.3,56.9,20.8,63.7-0.8c9.7-31.1,19.2-62.4,28.2-94c2.7,74.5,6.7,149,11.6,223.2
					c1.6,24.2,66,19.1,64.4-5.6C371.3,1108.7,363.7,936.5,369.6,765z"/>
				<path class="st2" d="M554.7,943.3c-29.4-15.2-120.3-57.5-89.8-107.5c28.1-46,90.2,63.6,102.9,92.6c0.5,4,2.8,7,6.5,9.3
					c0.6,0.4,1.2,0.7,1.9,1c0.4,0.2,0.8,0.4,1.2,0.6c12.9,6.1,36.2,3.3,47.2-5.8c0.2-0.2,0.5-0.3,0.7-0.5c0.6-0.5,1.1-1.1,1.6-1.7
					c2.6-2.8,4.3-6.1,4.4-10c0.6-41.4,7.4-83.5,22.2-122.3c9.3-24.2-53.9-25.7-62.2-4c-4.9,12.9-8.7,26.3-12,39.9
					c-34.2-38-79.9-64.1-130.2-46.2c-56.5,20.1-62.5,82-27.5,124.8c30.9,37.8,78.5,48.3,119,71.5c70.4,40.3,101.1,115.6,70.4,194.3
					c-20.3,51.9-93,97.6-132.2,35.3c-13.1-20.7-15.5-50-13.5-73.9s11.8-80.1,47.7-76.3c42.1,4.4,2.2,70.2-12.6,84.2
					c-21.3,20,40.6,27.8,56.5,12.9c83.1-77.9-5.6-173.8-97.5-123.1c-94.1,51.9-70.6,213.3,28.2,244.2
					c128,40.1,225.3-105.2,191.7-220C660.3,998.1,609.8,971.8,554.7,943.3z"/>
				<path class="st2" d="M963.1,765c0.8-23.9-61.6-18.8-64.4,5.6c-10.6,92.7-32.2,184.7-57.8,275c-26.4-92.2-49.2-185.9-62.3-280.6
					c-3.4-24.3-66-18.9-64.4,5.6c11.6,171.1,4.5,344.2-11.1,514.8c-2,22.5,62,19.9,64.4-5.6c6.4-70,11.2-140.5,14.1-211
					c8.7,29.6,17.6,59,26.8,88.2c6.7,21.3,56.9,20.8,63.7-0.8c9.7-31.1,19.2-62.4,28.2-94c2.7,74.5,6.7,149,11.6,223.2
					c1.6,24.2,66,19.1,64.4-5.6C964.9,1108.7,957.3,936.5,963.1,765z"/>
				<path class="st2" d="M1163.5,790.7c-37.8,0-65.8,17.2-85.1,43.1c-51.3,22.8-69.6,92.4-78.4,142.5
					c-11.8,67.1-12.9,151.4,38,204.1c65.6,68,174.2,37.4,210.8-44.5C1285.4,1054,1299.9,790.7,1163.5,790.7z M1194.2,1108.3
					c-9,29.5-29.8,77.3-67.3,71.7c-32.5-4.8-51.6-43.8-60.1-71.4c-9.6-31.3-11-64.8-7.6-97.5c17.3-168.1,112.6-169.5,112.6-169.5
					c26.6,12.1,30.7,99.1,32.8,124.2C1208.6,1013,1208.1,1062.7,1194.2,1108.3z"/>
				<path class="st2" d="M1457.3,949.7c-21.3,27.6-50.7,62.1-84.4,80.6c35.5-68.7,73.8-136,114.5-201.7c12.5-20.2-50.5-24.1-62.9-4
					c-20.1,32.5-39.5,65.3-58.4,98.5c4-41,8.6-81.8,12.8-122.1c2.3-22.3-61.7-19.9-64.4,5.6c-13.1,125.2-30.1,255.4-21.2,381.4
					c1.7,24.2,66.2,19.1,64.4-5.6c-2.5-35.4-2.8-71.1-1.9-106.9c25.4-5.1,49.1-15.5,70.8-29.5c-18.5,79-23.4,162.7-3.4,240.1
					c6.4,24.6,70.2,16.6,64.4-5.6c-27.3-105.7-8.2-222.3,29.8-322.3C1527.2,932.3,1467.5,936.5,1457.3,949.7z"/>
				<path class="st2" d="M1791.8,1016c-2.2-24.4-66.7-18.8-64.4,5.6c3.3,36.1,15.3,94.2,1.4,129.7c-15.9,40.5-79.4,40.2-111.1,6
					c-69.7-75.1,3.1-181.5,80.5-207.9c33.4-11.4,0.9-32.8-19.1-31.6c-34.8,2.2-82.3,0.6-58.6-44.8c5.5-10.5,36.4-42.8,47-40.8
					c10.5,2,21.2,23.3,26.9,32.2c10.3,16.1,18.5,35.4,24.2,53.6c-0.3,15.2,26.6,18.9,45.6,12.8c12.3-3.1,21.5-9.7,18.7-18.4
					c0.6-36.2,2.5-81.7,8.1-113.3c4.8-27.4-59-26.1-62.9-4c-1.4,8.1-2.5,16.2-3.5,24.3c-42.6-34.6-98.7-34-151.6,28.6
					c-49.6,58.6-13.5,88.1,36.4,99.7c-41.5,26.9-72.4,66.6-79.7,119.1c-7.6,55.1,14.8,113,66.7,138.1
					c45.8,22.1,151.7,16.5,185.7-24.5C1812.9,1143.4,1795.5,1056.3,1791.8,1016z"/>
			</g>
			<g>
				<g>
					<path d="M236.9,1044.9c-11.2-20.6-20.7-42.1-29.1-64c-8.4-21.9-15.5-44.3-21.5-67c-2.9-11.4-5.6-22.8-7.8-34.3
						c-0.6-2.9-1.1-5.8-1.6-8.7c-0.5-2.9-1.1-5.8-1.5-8.7l-1.4-8.7c-0.4-2.9-0.8-5.8-1.2-8.7c-3.1-23.3-4.3-46.8-3.7-70.2
						c0.5,11.7,1,23.4,2.2,35l0.4,4.4l0.5,4.3l1,8.7l1.2,8.7l0.6,4.3l0.7,4.3c3.5,23.1,8.3,46,14.2,68.5c2.9,11.3,6.1,22.5,9.6,33.7
						c3.4,11.2,7.1,22.2,11.1,33.2c3.9,11,8.1,21.9,12.5,32.8C227.2,1023.5,231.9,1034.3,236.9,1044.9z"/>
				</g>
				<g>
					<path d="M539.8,849.6c-0.2,0.1-0.4,0-0.6-0.1c-0.2-0.1-0.3-0.2-0.5-0.3c-0.3-0.2-0.7-0.5-1-0.7c-0.6-0.5-1.3-1-1.9-1.5l-3.7-3
						c-2.5-2-4.9-4.1-7.4-6.1c-4.9-4-10-7.8-15.3-11.3c-5.3-3.4-10.7-6.6-16.5-8.9c-5.7-2.3-11.9-3.8-17.8-3.2
						c-3,0.3-5.9,1.1-8.5,2.4c-2.7,1.3-5.1,3.2-7.2,5.3c-4.3,4.3-7.4,9.8-9.8,15.6c-2.5,5.8-4.3,11.8-5.8,18
						c-1.5,6.2-2.7,12.4-3.8,18.7c0.3-6.4,1-12.7,2.1-19.1c1.1-6.3,2.6-12.6,5-18.7c2.3-6.1,5.4-11.9,10-16.9c2.3-2.4,5-4.5,8-6.1
						c3-1.5,6.4-2.5,9.8-2.8c6.8-0.6,13.4,1.1,19.4,3.6c6,2.6,11.6,5.9,16.8,9.7c5.2,3.8,10.1,7.9,14.8,12.2
						c2.3,2.2,4.6,4.4,6.9,6.7l3.4,3.4c0.6,0.6,1.1,1.1,1.7,1.7c0.3,0.3,0.6,0.5,0.9,0.8c0.2,0.1,0.3,0.2,0.5,0.3
						C539.4,849.5,539.6,849.7,539.8,849.6z"/>
				</g>
				<g>
					<path d="M643.2,1013.6c3.5,2.9,6.5,6.4,9.3,10c2.8,3.6,5.2,7.5,7.5,11.5c4.3,8.1,7.8,16.7,10.1,25.6c2.4,8.9,3.8,18,4.5,27.2
						c0.6,9.2,0.5,18.4-0.2,27.6c-1.6,18.3-5.3,36.4-10.7,53.8c-5.4,17.5-12.4,34.4-20.5,50.7c6.8-16.9,12.9-34.1,17.8-51.5
						c0.6-2.2,1.1-4.4,1.7-6.6c0.5-2.2,1.2-4.4,1.7-6.6l1.5-6.6l0.7-3.3c0.2-1.1,0.4-2.2,0.6-3.3l1.2-6.7c0.4-2.2,0.7-4.5,1-6.7
						c0.7-4.5,1-9,1.5-13.5c0.7-9,0.9-18,0.3-27.1c-0.5-9-1.8-17.9-3.8-26.7c-2-8.8-5.1-17.3-9-25.5c-2-4.1-4.2-8-6.7-11.8
						c-1.3-1.9-2.6-3.7-4-5.5C646.3,1016.9,644.8,1015.1,643.2,1013.6z"/>
				</g>
				<g>
					<path d="M810.8,1106.2c-4.7-12.2-9.5-24.4-15.1-36.2c-1.4-2.9-2.9-5.8-4.5-8.7c-1.6-2.8-3.2-5.6-5.2-8.1c-1-1.2-2-2.4-3.1-3.4
						c-1.1-0.9-2.3-1.7-3.3-1.7c-0.2,0-0.5,0-0.7,0.1c-0.1,0-0.2,0-0.3,0.1c-0.1,0.1-0.2,0.1-0.3,0.2c-0.5,0.3-0.9,0.7-1.3,1.2
						c-0.8,1.1-1.5,2.4-2,3.9c-1.1,2.9-1.8,6-2.4,9.2c-0.3,1.6-0.5,3.2-0.8,4.8c-0.2,1.6-0.4,3.2-0.6,4.8c-0.8,6.4-1.2,13-1.6,19.5
						c-0.8,13-1.1,26.1-1.6,39.2c-1-13.1-1.5-26.2-1.2-39.3c0.1-6.6,0.4-13.2,1-19.7c0.3-3.3,0.8-6.6,1.3-9.9s1.3-6.6,2.5-9.8
						c0.6-1.6,1.4-3.2,2.6-4.8c0.6-0.8,1.3-1.5,2.3-2.1l0.8-0.4c0.2-0.1,0.6-0.2,0.8-0.3c0.6-0.2,1.2-0.2,1.7-0.2
						c0.6,0,1.1,0.2,1.6,0.3c0.5,0.2,1,0.4,1.4,0.6c0.9,0.5,1.6,1.1,2.3,1.7c1.4,1.2,2.5,2.6,3.5,3.9c2,2.8,3.7,5.7,5.2,8.6
						s2.9,5.9,4.2,9c2.6,6.1,4.9,12.2,7,18.5C807.2,1093.6,809.2,1099.9,810.8,1106.2z"/>
				</g>
				<g>
					<path d="M728.8,977.9c0.2-15.9,0.5-31.7,0.9-47.5l0.5-23.8c0.2-7.9,0.3-15.8,0.5-23.7c0.2-7.9,0.2-15.8,0.3-23.7
						c0.1-7.9,0-15.8,0-23.7c-0.1-7.9-0.3-15.8-0.8-23.7c-0.2-3.9-0.6-7.9-1.2-11.8c-0.3-2-0.7-3.9-1.2-5.8
						c-0.5-1.9-1.1-3.8-2.6-5.2c0.8,0.6,1.4,1.5,1.9,2.3c0.5,0.9,0.9,1.8,1.2,2.8c0.7,1.9,1.2,3.8,1.6,5.8c0.9,3.9,1.4,7.8,1.9,11.8
						c0.9,7.9,1.5,15.8,1.9,23.8c0.4,7.9,0.5,15.9,0.6,23.8c0.1,7.9,0,15.9-0.1,23.8c-0.2,7.9-0.4,15.9-0.7,23.8
						c-0.3,7.9-0.6,15.8-1.1,23.8C731.5,946.3,730.4,962.1,728.8,977.9z"/>
				</g>
				<g>
					<path d="M1205.1,866c-0.5-5.6-1.6-11.2-3.5-16.4c-1.9-5.2-4.7-10.1-8.6-13.8c-2-1.8-4.2-3.4-6.6-4.5c-2.4-1.1-5-1.9-7.6-2.3
						c-5.3-0.8-10.8-0.3-16.2,0.9c-2.7,0.6-5.3,1.4-8,2.2c-2.6,0.9-5.2,1.9-7.8,3c-5.1,2.2-10.1,4.7-15.1,7.4
						c-4.9,2.7-9.8,5.6-14.5,8.6c-4.8,3-9.5,6.1-14.2,9.2c8.6-7.4,17.7-14.2,27.4-20.2c9.7-5.9,20.1-11.1,31.4-13.7
						c5.7-1.2,11.6-1.8,17.5-0.8c2.9,0.5,5.8,1.5,8.5,2.8c2.7,1.3,5.1,3.2,7.1,5.4c4.1,4.3,6.7,9.7,8.3,15.2
						C1204.8,854.6,1205.4,860.4,1205.1,866z"/>
				</g>
				<g>
					<path d="M1085.3,1174c-3.2-3.6-6-7.5-8.8-11.4c-2.7-3.9-5.3-8-7.8-12.1c-4.9-8.3-9.3-16.9-13-25.8c-3.8-8.9-6.9-18-9.5-27.3
						c-2.5-9.3-4.4-18.8-5.7-28.4c-1.2-9.6-1.6-19.3-1.5-28.9l0.3-7.2c0.1-2.4,0.4-4.8,0.6-7.2l0.3-3.6c0.1-1.2,0.3-2.4,0.5-3.6
						l1.1-7.2c3.4-19,9.5-37.5,18-54.7c-7.1,17.8-12.4,36.3-15.2,55.1c-1.2,9.4-2.1,18.9-2.1,28.4c0,9.5,0.4,19,1.7,28.4
						c1.2,9.4,3,18.8,5.4,28c2.3,9.2,5.3,18.3,8.8,27.2c3.5,8.9,7.4,17.6,11.9,26c2.2,4.2,4.6,8.4,7.1,12.5c1.2,2.1,2.5,4.1,3.8,6.1
						C1082.5,1170.1,1083.8,1172.1,1085.3,1174z"/>
				</g>
				<g>
					<path d="M266,1106.6c4.3-12,9.4-23.7,15.2-35.1c2.9-5.7,6.1-11.2,9.8-16.5c1.8-2.6,3.8-5.2,6.1-7.5c1.1-1.2,2.3-2.3,3.7-3.3
						c1.3-1,2.8-1.8,4.5-2.3c1.7-0.5,3.6-0.5,5.2,0.3c1.6,0.7,3,1.9,4,3.3c0.5,0.7,0.9,1.4,1.4,2.1c0.4,0.7,0.8,1.5,1.1,2.2
						c0.3,0.8,0.6,1.5,0.9,2.3c0.3,0.8,0.5,1.5,0.8,2.3c1.9,6.2,2.9,12.5,3.5,18.9c0.7,6.3,1,12.7,1.2,19.1c0.1,6.4,0.2,12.7,0,19.1
						c-0.3-6.4-0.5-12.7-0.9-19.1c-0.4-6.3-0.9-12.7-1.7-19c-0.4-3.2-0.9-6.3-1.5-9.4c-0.6-3.1-1.3-6.2-2.2-9.2
						c-0.2-0.7-0.5-1.5-0.8-2.2c-0.3-0.7-0.6-1.4-0.9-2.2c-0.3-0.7-0.7-1.4-1-2.1c-0.4-0.6-0.8-1.3-1.3-1.9c-0.9-1.2-2-2.2-3.3-2.7
						c-1.3-0.6-2.7-0.6-4.1-0.2c-1.4,0.4-2.7,1.1-3.9,2s-2.4,1.9-3.5,3.1c-2.2,2.2-4.1,4.7-6,7.3c-3.7,5.1-6.8,10.7-9.9,16.2
						c-3,5.6-5.9,11.3-8.6,17C271.1,1094.9,268.5,1100.8,266,1106.6z"/>
				</g>
				<g>
					<path d="M1374,1034.9c9-5,17.7-10.4,26.2-16c8.5-5.7,16.8-11.6,24.7-18c4-3.2,7.8-6.5,11.6-9.9c3.8-3.4,7.4-7,10.9-10.7
						l2.6-2.8l2.5-2.8c0.9-0.9,1.7-1.9,2.5-2.9c0.8-1,1.7-1.9,2.4-2.9c3.2-4,6.2-8.1,9.2-12.3c-2.2,4.6-4.9,9.1-7.7,13.4
						c-2.9,4.2-6,8.4-9.4,12.3c-6.7,7.9-14.3,15-22.3,21.5c-4.1,3.2-8.2,6.3-12.4,9.3c-4.3,2.9-8.6,5.7-13,8.3
						C1392.9,1026.5,1383.7,1031.3,1374,1034.9z"/>
				</g>
				<g>
					<path d="M1479.2,1279.2c-6.8-16-11.8-32.7-15.8-49.6c-2-8.5-3.7-17-5-25.6c-1.3-8.6-2.3-17.3-3-26c-0.6-8.7-0.8-17.4-0.6-26.2
						c0.3-8.7,1-17.4,2.2-26.1c1.3-8.6,3.2-17.2,5.6-25.6c2.6-8.3,5.8-16.5,9.6-24.2c-3.2,8.1-5.9,16.3-7.9,24.7
						c-2,8.4-3.5,16.9-4.5,25.4c-0.9,8.6-1.5,17.2-1.6,25.8c-0.1,8.6,0.2,17.2,0.8,25.8c0.6,8.6,1.6,17.2,2.8,25.7
						c1.2,8.6,2.7,17.1,4.4,25.5C1469.6,1245.9,1473.8,1262.7,1479.2,1279.2z"/>
				</g>
				<g>
					<path d="M1307.7,1161.5c-1-6.3-1.7-12.6-2.3-19c-0.3-3.2-0.6-6.3-0.9-9.5s-0.5-6.4-0.7-9.5s-0.4-6.4-0.6-9.6l-0.4-9.6
						c-0.4-6.4-0.4-12.8-0.6-19.1c-0.2-6.4-0.2-12.8-0.2-19.1c-0.1-6.4,0.1-12.8,0.2-19.1l0.2-9.6c0.1-3.2,0.2-6.4,0.3-9.6
						c0.3-6.4,0.4-12.8,0.8-19.1c0.8-12.7,1.4-25.5,2.6-38.2l0.8-9.5c0.3-3.2,0.5-6.4,0.9-9.5l2-19c0.4-3.2,0.7-6.3,1.1-9.5l1.2-9.5
						l2.6-19c0.4-3.2,0.9-6.3,1.5-9.5l1.5-9.4l1.5-9.4l1.6-9.4c-1.3,12.7-3,25.3-4.4,38l-2,19l-1,9.5c-0.3,3.2-0.6,6.3-0.8,9.5
						l-1.7,19c-0.3,3.2-0.5,6.3-0.8,9.5l-0.7,9.5c-1.1,12.7-1.7,25.4-2.4,38.1c-0.3,6.3-0.6,12.7-0.8,19.1c-0.1,3.2-0.3,6.4-0.4,9.5
						l-0.2,9.5c-0.2,6.4-0.4,12.7-0.4,19.1l-0.1,9.6c-0.1,3.2-0.1,6.4,0,9.6c0,6.4,0,12.7,0.2,19.1l0.2,9.6l0.3,9.5
						C1305.9,1136.1,1306.6,1148.8,1307.7,1161.5z"/>
				</g>
				<g>
					<path d="M853,1046.5c2.2-11.2,4.6-22.3,6.9-33.5c2.4-11.2,4.8-22.3,7.2-33.4c2.4-11.1,4.9-22.2,7.4-33.4l7.6-33.3l7.7-33.3
						l7.8-33.3l7.9-33.3c2.7-11.1,5.3-22.2,7.9-33.3c-3.8,22.5-8.4,44.8-13.1,67.1c-2.3,11.2-4.8,22.3-7.2,33.4l-7.5,33.4l-7.8,33.3
						c-2.7,11.1-5.2,22.2-8,33.2c-2.7,11.1-5.4,22.1-8.2,33.2C858.7,1024.5,856,1035.5,853,1046.5z"/>
				</g>
				<g>
					<path d="M1622.2,841.6c5.6-9.1,12.8-17.3,21.8-23.4c4.5-3,9.5-5.3,14.9-6.4c5.4-1.1,11-0.8,16.2,0.9c2.6,0.8,5.1,2,7.5,3.3
						c2.4,1.4,4.6,3,6.7,4.7c4.2,3.5,7.8,7.5,11.1,11.8c3.2,4.3,6.2,8.8,8.8,13.4c2.6,4.7,5,9.5,7.2,14.3c-2.5-4.7-5.1-9.4-7.9-13.9
						c-2.8-4.5-5.8-8.9-9.1-13c-1.7-2.1-3.4-4-5.2-6c-1.9-1.9-3.8-3.7-5.8-5.3c-2.1-1.6-4.2-3.2-6.5-4.5c-2.3-1.3-4.7-2.4-7.1-3.1
						c-4.9-1.6-10.3-1.9-15.4-1c-5.1,0.9-10,3.2-14.5,5.9c-4.5,2.8-8.5,6.2-12.3,10C1628.7,833.1,1625.3,837.2,1622.2,841.6z"/>
				</g>
				<g>
					<path d="M1723.4,920.9c4.5,1.4,9.1,2.4,13.8,2.9c4.6,0.5,9.3,0.5,13.9-0.2c2.3-0.4,4.5-0.9,6.7-1.6c2.2-0.7,4.2-1.7,6.2-2.8
						c1-0.5,1.9-1.2,2.8-1.9l1.3-1c0.3-0.3,0.6-0.6,0.9-1c1.1-1.7,1.7-3.8,2.1-6l0,0.1c0.6-8.3,1.2-16.5,1.9-24.8
						c0.7-8.3,1.4-16.5,2.2-24.8c0.4-4.1,0.8-8.2,1.2-12.4c0.4-4.1,0.8-8.2,1.3-12.4c0.4-4.1,0.9-8.2,1.4-12.4
						c0.5-4.1,1-8.2,1.6-12.3c-0.1,4.2-0.3,8.3-0.4,12.4c-0.2,4.1-0.3,8.3-0.6,12.4c-0.2,4.1-0.4,8.3-0.7,12.4
						c-0.2,4.1-0.5,8.3-0.8,12.4c-0.5,8.3-1.2,16.5-1.8,24.8c-0.7,8.3-1.3,16.5-2.1,24.8l0,0.1l0,0c-0.5,2.5-1.2,4.9-2.8,7.2
						c-0.4,0.6-0.9,1.1-1.5,1.6l-1.5,1.1c-1,0.7-2.1,1.4-3.1,1.9c-4.3,2.3-9.1,3.7-13.9,4.1c-4.8,0.5-9.6,0.2-14.3-0.7
						C1732.3,924.1,1727.7,922.8,1723.4,920.9z"/>
				</g>
				<g>
					<path d="M1587.9,931.6c7,0,13.9,0.8,20.8,2.5c3.4,0.8,6.8,2,10.1,3.7c1.6,0.9,3.2,2,4.6,3.5c0.7,0.7,1.3,1.6,1.7,2.6
						c0.4,1,0.7,2.1,0.6,3.2c0,0.6-0.1,1.1-0.2,1.6c-0.2,0.5-0.3,1-0.5,1.5l-0.3,0.7l-0.4,0.7c-0.2,0.5-0.5,0.8-0.8,1.2
						c-1.1,1.6-2.4,2.9-3.8,4.1c-2.8,2.3-5.8,4.2-8.9,5.9c-6.2,3.3-12.7,5.9-19.3,8c6.1-3.4,12.1-6.7,17.9-10.4
						c2.8-1.9,5.7-3.8,8.1-6c1.2-1.1,2.3-2.3,3.2-3.5c0.8-1.2,1.5-2.6,1.5-3.8c0.1-1.2-0.5-2.4-1.4-3.5c-0.9-1.1-2.2-2-3.6-2.8
						c-2.8-1.7-6-2.9-9.2-4C1601.5,934.6,1594.7,933,1587.9,931.6z"/>
				</g>
				<g>
					<path d="M1584.4,1120.5c0.4,1.8,1,3.5,1.6,5.3c0.6,1.7,1.2,3.5,1.9,5.2c1.3,3.4,2.8,6.8,4.4,10c3.2,6.5,7,12.8,11.4,18.5
						c4.5,5.7,9.5,10.9,15.2,15.3c1.5,1,2.9,2.1,4.4,3.2l4.6,2.8l4.8,2.5c1.6,0.8,3.3,1.4,4.9,2.1c6.7,2.6,13.7,4.3,20.9,5.2
						l5.4,0.4c0.9,0.1,1.8,0.2,2.7,0.2l2.7,0c1.8,0,3.6,0,5.4-0.1l5.4-0.4c0.9-0.1,1.8-0.1,2.7-0.2l2.7-0.4l5.4-0.8
						c1.8-0.2,3.6-0.7,5.4-1l5.4-1.1l10.6-2.8c3.5-1.1,7-2.2,10.5-3.3c-13.4,6-27.6,10.6-42.4,12.3l-5.5,0.6
						c-1.8,0.1-3.7,0.1-5.6,0.2l-2.8,0.1c-0.9,0-1.9-0.1-2.8-0.1l-5.6-0.3c-7.4-0.8-14.8-2.5-21.8-5.2c-1.7-0.8-3.5-1.4-5.2-2.3
						l-5-2.6l-4.8-3c-1.5-1.1-3-2.2-4.5-3.4c-5.8-4.7-11-10.2-15.3-16.3c-4.4-6-7.9-12.6-10.8-19.4c-1.4-3.4-2.7-6.9-3.7-10.4
						C1585.8,1127.7,1584.9,1124.2,1584.4,1120.5z"/>
				</g>
			</g>
		</g>
	</g>
</g>
<g id="Warstwa_2">
</g>
</svg>
